<svg xmlns="http://www.w3.org/2000/svg" xmlns:xlink="http://www.w3.org/1999/xlink" width="479.309" height="510.458" viewBox="0 0 479.309 510.458">
  <defs>
    <clipPath id="clip-path">
      <rect width="479.309" height="510.458" fill="none"/>
    </clipPath>
    <clipPath id="clip-path-7">
      <rect id="Rectangle_178" data-name="Rectangle 178" width="3.564" height="33.79" fill="none"/>
    </clipPath>
    <clipPath id="clip-path-8">
      <rect id="Rectangle_179" data-name="Rectangle 179" width="11.868" height="95.627" fill="none"/>
    </clipPath>
  </defs>
  <g id="Repeat_Grid_1" data-name="Repeat Grid 1" clip-path="url(#clip-path)">
    <g id="Group_317" data-name="Group 317" transform="translate(0 0)">
      <g id="Group_316" data-name="Group 316" transform="translate(0)" clip-path="url(#clip-path)">
        <rect id="Rectangle_146" data-name="Rectangle 146" width="108.408" height="204.927" transform="translate(36.982 294.323)" fill="#e0e0e0"/>
        <rect id="Rectangle_147" data-name="Rectangle 147" width="108.408" height="204.927" transform="translate(4.809 294.323)" fill="#f5f5f5"/>
        <path id="Path_12236" data-name="Path 12236" d="M103.889,302.882H10.836V270.4h93.053Zm-91.909-1.143h90.766v-30.2H11.981Z" transform="translate(1.347 33.623)" fill="#e0e0e0"/>
        <g id="Group_301" data-name="Group 301">
          <g id="Group_300" data-name="Group 300" clip-path="url(#clip-path)">
            <path id="Path_12237" data-name="Path 12237" d="M66.824,277.379H42.637a5.563,5.563,0,0,1-5.563-5.563v-.91H72.388v.91a5.563,5.563,0,0,1-5.563,5.563" transform="translate(4.61 33.687)" fill="#ebebeb"/>
            <path id="Path_12238" data-name="Path 12238" d="M103.889,339.581H10.836V307.1h93.053Zm-91.909-1.143h90.766v-30.2H11.981Z" transform="translate(1.347 38.187)" fill="#e0e0e0"/>
            <path id="Path_12239" data-name="Path 12239" d="M66.824,314.079H42.637a5.563,5.563,0,0,1-5.563-5.563v-.91H72.388v.91a5.563,5.563,0,0,1-5.563,5.563" transform="translate(4.61 38.25)" fill="#ebebeb"/>
            <path id="Path_12240" data-name="Path 12240" d="M103.889,376.281H10.836V343.8h93.053Zm-91.909-1.143h90.766v-30.2H11.981Z" transform="translate(1.347 42.75)" fill="#e0e0e0"/>
            <path id="Path_12241" data-name="Path 12241" d="M66.824,350.778H42.637a5.563,5.563,0,0,1-5.563-5.563v-.91H72.388v.91a5.563,5.563,0,0,1-5.563,5.563" transform="translate(4.61 42.814)" fill="#ebebeb"/>
            <path id="Path_12242" data-name="Path 12242" d="M103.889,412.981H10.836V380.5h93.053Zm-91.909-1.143h90.766v-30.2H11.981Z" transform="translate(1.347 47.314)" fill="#e0e0e0"/>
            <path id="Path_12243" data-name="Path 12243" d="M66.824,387.478H42.637a5.563,5.563,0,0,1-5.563-5.563v-.91H72.388v.91a5.563,5.563,0,0,1-5.563,5.563" transform="translate(4.61 47.377)" fill="#ebebeb"/>
            <rect id="Rectangle_148" data-name="Rectangle 148" width="117.752" height="10.208" transform="translate(0 286.652)" fill="#ebebeb"/>
            <rect id="Rectangle_149" data-name="Rectangle 149" width="35.409" height="10.208" transform="translate(117.752 286.652)" fill="#e0e0e0"/>
            <rect id="Rectangle_150" data-name="Rectangle 150" width="5.697" height="10.468" transform="translate(4.809 499.25)" fill="#e0e0e0"/>
            <rect id="Rectangle_151" data-name="Rectangle 151" width="5.697" height="10.468" transform="translate(40.009 499.25)" fill="#e0e0e0"/>
            <rect id="Rectangle_152" data-name="Rectangle 152" width="5.697" height="10.468" transform="translate(104.306 499.25)" fill="#e0e0e0"/>
            <rect id="Rectangle_153" data-name="Rectangle 153" width="5.697" height="10.468" transform="translate(136.454 499.25)" fill="#e0e0e0"/>
            <path id="Path_12244" data-name="Path 12244" d="M93.694,230.713l10.974,28.073-6.821-.031L92.378,241.5Z" transform="translate(11.487 28.689)" fill="#e0e0e0"/>
            <path id="Path_12245" data-name="Path 12245" d="M60.637,207.643l-3.772,53.789,38.944.814,4.382-54.6Z" transform="translate(7.071 25.82)" fill="#ebebeb"/>
            <path id="Path_12246" data-name="Path 12246" d="M64.033,211.525,60.893,256.3l28.951,1.357,4.044-46.394Z" transform="translate(7.572 26.27)" fill="#fafafa"/>
            <path id="Path_12247" data-name="Path 12247" d="M69.6,217.126,67.247,248.6h15.97l2.818-31.472Z" transform="translate(8.362 26.999)" fill="#e0e0e0"/>
            <rect id="Rectangle_154" data-name="Rectangle 154" width="145.358" height="261.126" transform="translate(319.786 24.787)" fill="#ebebeb"/>
            <rect id="Rectangle_155" data-name="Rectangle 155" width="132.245" height="245.775" transform="translate(325.593 32.36)" fill="#fafafa"/>
            <path id="Path_12248" data-name="Path 12248" d="M419.849,286.016l-6.148-2.354V18.107h6.148Z" transform="translate(51.443 2.252)" fill="#e0e0e0"/>
            <rect id="Rectangle_156" data-name="Rectangle 156" width="135.116" height="2.617" transform="translate(325.593 103.061)" fill="#e0e0e0"/>
            <rect id="Rectangle_157" data-name="Rectangle 157" width="135.116" height="2.617" transform="translate(325.593 161.59)" fill="#e0e0e0"/>
            <rect id="Rectangle_158" data-name="Rectangle 158" width="135.116" height="2.616" transform="translate(325.593 220.119)" fill="#e0e0e0"/>
            <rect id="Rectangle_159" data-name="Rectangle 159" width="6.682" height="180.733" transform="translate(388.374 104.37)" fill="#e0e0e0"/>
            <rect id="Rectangle_160" data-name="Rectangle 160" width="3.027" height="72.011" transform="translate(351.057 32.36)" fill="#e0e0e0"/>
            <rect id="Rectangle_161" data-name="Rectangle 161" width="3.027" height="72.011" transform="translate(377.164 32.36)" fill="#e0e0e0"/>
            <rect id="Rectangle_162" data-name="Rectangle 162" width="3.027" height="72.011" transform="translate(403.27 32.36)" fill="#e0e0e0"/>
            <rect id="Rectangle_163" data-name="Rectangle 163" width="3.027" height="72.011" transform="translate(429.376 32.36)" fill="#e0e0e0"/>
            <rect id="Rectangle_164" data-name="Rectangle 164" width="6.148" height="267.171" transform="translate(313.637 20.359)" fill="#e0e0e0"/>
            <rect id="Rectangle_165" data-name="Rectangle 165" width="157.654" height="7.125" transform="translate(313.638 17.662)" fill="#e0e0e0"/>
            <rect id="Rectangle_166" data-name="Rectangle 166" width="166.177" height="6.638" transform="translate(309.275 289.146)" fill="#e0e0e0"/>
            <path id="Path_12249" data-name="Path 12249" d="M430.939,254.293l10.31,3.233H275.071l10.51-3.233Z" transform="translate(34.204 31.621)" fill="#e0e0e0"/>
            <path id="Path_12250" data-name="Path 12250" d="M86.964,31.38A33.373,33.373,0,0,1,95.1,27.845l1.675-8.051,13.6-.238,1.959,7.986a33.357,33.357,0,0,1,8.254,3.247l6.875-4.506,9.787,9.451-4.261,7.027a33.321,33.321,0,0,1,3.535,8.137l8.051,1.675.238,13.6-7.987,1.959a33.262,33.262,0,0,1-3.247,8.253l4.506,6.875-9.449,9.789-7.029-4.261a33.334,33.334,0,0,1-8.136,3.534l-1.675,8.051-13.6.239-1.958-7.988a33.3,33.3,0,0,1-8.254-3.247l-6.875,4.508-9.789-9.451,4.262-7.028a33.291,33.291,0,0,1-3.536-8.135L63.994,67.6l-.238-13.6,7.987-1.959a33.4,33.4,0,0,1,3.247-8.254l-4.506-6.875,9.45-9.787ZM94.216,49.5a14.6,14.6,0,1,0,20.637-.363,14.594,14.594,0,0,0-20.637.363" transform="translate(7.928 2.432)" fill="#e0e0e0"/>
            <path id="Path_12251" data-name="Path 12251" d="M91.328,46.712a11.028,11.028,0,0,1,2.718-2.385,14.534,14.534,0,0,1,9.522-2.252,14.731,14.731,0,0,1,6.472,2.3,14.948,14.948,0,0,1,5.234,5.9,14.975,14.975,0,0,1,1.409,8.59,14.891,14.891,0,0,1-12.319,12.762,14.977,14.977,0,0,1-8.636-1.107,14.946,14.946,0,0,1-6.077-5.024,14.726,14.726,0,0,1-2.525-6.387,14.535,14.535,0,0,1,1.916-9.594,11.013,11.013,0,0,1,2.288-2.8c.079.066-.881.958-2.006,2.962a14.557,14.557,0,0,0-1.613,9.343,14.268,14.268,0,0,0,8.331,10.8,14.259,14.259,0,0,0,8.184,1,14.144,14.144,0,0,0,11.646-12.064,14.265,14.265,0,0,0-1.291-8.141,14.257,14.257,0,0,0-11.08-7.947A14.552,14.552,0,0,0,94.218,44.6c-1.963,1.194-2.82,2.186-2.89,2.108" transform="translate(10.815 5.221)" fill="#e0e0e0"/>
            <path id="Path_12252" data-name="Path 12252" d="M87,31.408a3.189,3.189,0,0,1-.453-.239L85.2,30.389,79.9,27.26l.165-.021L70.67,37.081l.025-.263,4.534,6.856.081.124-.072.132a33.244,33.244,0,0,0-3.194,8.2L72,52.289l-.163.04L63.86,54.311l.227-.295c.085,4.283.175,8.829.271,13.6L64.1,67.3l8.053,1.661.206.042.057.2a33.127,33.127,0,0,0,3.511,8.044l.114.187-.114.188-4.251,7.034-.06-.461c3.077,2.965,6.4,6.161,9.8,9.438l-.485-.045L87.8,89.075l.2-.133.21.117a33.117,33.117,0,0,0,8.156,3.2l.238.058.058.238c.615,2.5,1.286,5.229,1.963,7.986l-.406-.313,13.6-.244-.4.331c.528-2.543,1.1-5.288,1.674-8.051l.051-.248.244-.069a33.052,33.052,0,0,0,8.026-3.487l.007,0,.219-.129.215.129,7.028,4.262-.517.066L137.823,83l-.048.515-4.5-6.878-.136-.208.12-.217a32.945,32.945,0,0,0,3.212-8.15l.06-.238.238-.058,7.988-1.952-.3.395q-.116-6.965-.226-13.6l.307.37-8.049-1.685-.223-.047-.062-.218a33.019,33.019,0,0,0-3.483-8.05l-.114-.188.114-.187,4.273-7.022.056.431c-3.436-3.331-6.68-6.476-9.768-9.469l.4.037-6.885,4.488-.154.1-.157-.089a33.2,33.2,0,0,0-8.174-3.243l-.162-.04-.038-.161c-.7-2.9-1.335-5.522-1.932-7.993l.244.189c-5.27.069-9.759.127-13.6.179l.181-.15c-.69,3.211-1.256,5.845-1.727,8.04l-.018.081L95.169,28a34.63,34.63,0,0,0-6.221,2.393l-1.463.765a3.324,3.324,0,0,1-.488.248,4.374,4.374,0,0,1,.453-.309c.311-.191.783-.478,1.435-.826a32.248,32.248,0,0,1,6.21-2.529l-.094.1c.443-2.2.975-4.841,1.624-8.062l.029-.146.152,0,13.6-.3.2,0,.048.192c.614,2.468,1.263,5.081,1.984,7.981l-.2-.2a33.607,33.607,0,0,1,8.335,3.252l-.31.011,6.864-4.523.212-.141.186.179,9.807,9.43.2.192-.144.238c-1.38,2.285-2.793,4.623-4.25,7.035V42.6a33.731,33.731,0,0,1,3.586,8.22l-.284-.264,8.053,1.666.3.062.006.308q.123,6.635.253,13.6l.006.318-.309.076-7.986,1.964.3-.3a33.726,33.726,0,0,1-3.282,8.356l-.015-.424,4.509,6.873.181.277-.229.238-9.447,9.791-.232.241-.286-.174-7.029-4.26h.433l-.007,0a33.878,33.878,0,0,1-8.23,3.574l.295-.317c-.576,2.764-1.148,5.508-1.678,8.05l-.067.326-.333.006-13.6.233-.327.006-.078-.318c-.675-2.757-1.341-5.486-1.953-7.989l.3.3a33.866,33.866,0,0,1-8.349-3.293l.412-.015-6.88,4.5-.261.171-.224-.216-9.776-9.463-.215-.207.155-.255,4.271-7.022v.373a33.726,33.726,0,0,1-3.559-8.227l.262.243-8.048-1.691-.257-.054,0-.263c-.073-4.773-.143-9.32-.208-13.6l0-.238.23-.056L71.711,51.8l-.2.2a33.674,33.674,0,0,1,3.3-8.307l.009.254c-1.612-2.484-3.121-4.8-4.478-6.893l-.092-.144.118-.12c3.87-3.964,7.071-7.241,9.505-9.733l.076-.078.089.056,5.179,3.222,1.331.844a4.056,4.056,0,0,1,.451.309" transform="translate(7.895 2.404)" fill="#e0e0e0"/>
            <path id="Path_12253" data-name="Path 12253" d="M160.4,7.213a19.931,19.931,0,0,1,4.87-2.116l1-4.82,8.143-.143,1.173,4.781a19.929,19.929,0,0,1,4.94,1.944l4.116-2.7L190.5,9.818l-2.551,4.207a19.939,19.939,0,0,1,2.116,4.871l4.819,1,.144,8.143-4.782,1.173a19.964,19.964,0,0,1-1.944,4.94l2.7,4.116-5.655,5.859-4.208-2.551a19.955,19.955,0,0,1-4.87,2.116l-1,4.82-8.144.142-1.172-4.781a19.945,19.945,0,0,1-4.94-1.944l-4.116,2.7-5.859-5.657,2.551-4.207a19.934,19.934,0,0,1-2.116-4.87l-4.82-1-.143-8.144,4.782-1.172a19.956,19.956,0,0,1,1.944-4.942l-2.7-4.115,5.657-5.859Zm4.341,10.848a8.737,8.737,0,1,0,12.353-.217,8.737,8.737,0,0,0-12.353.217" transform="translate(18.218 0.017)" fill="#f5f5f5"/>
            <path id="Path_12254" data-name="Path 12254" d="M163.012,16.39a6.589,6.589,0,0,1,1.627-1.428,8.7,8.7,0,0,1,5.7-1.347,8.8,8.8,0,0,1,3.875,1.376,8.943,8.943,0,0,1,3.132,3.529,8.959,8.959,0,0,1,.844,5.142,8.915,8.915,0,0,1-7.376,7.64,8.948,8.948,0,0,1-5.169-.662,8.953,8.953,0,0,1-3.638-3.008A8.8,8.8,0,0,1,160.5,23.81a8.7,8.7,0,0,1,1.147-5.744,6.6,6.6,0,0,1,1.369-1.675c.047.04-.527.573-1.2,1.773a8.714,8.714,0,0,0-.966,5.593,8.537,8.537,0,0,0,4.988,6.463,8.535,8.535,0,0,0,4.9.6A8.466,8.466,0,0,0,177.7,23.6a8.541,8.541,0,0,0-.772-4.874,8.535,8.535,0,0,0-6.633-4.756,8.707,8.707,0,0,0-5.557,1.161c-1.175.714-1.688,1.308-1.729,1.262" transform="translate(19.946 1.687)" fill="#f5f5f5"/>
            <path id="Path_12255" data-name="Path 12255" d="M160.419,7.23a1.826,1.826,0,0,1-.271-.143l-.807-.467L156.17,4.747l.1-.013-5.623,5.893.015-.159c.822,1.245,1.736,2.626,2.714,4.1l.048.074-.043.079a19.932,19.932,0,0,0-1.913,4.908l-.024.1-.1.025L146.57,20.94l.136-.177c.051,2.564.1,5.284.162,8.143l-.157-.19,4.821.994.123.025.035.121a19.863,19.863,0,0,0,2.1,4.814l.069.111-.069.112c-.788,1.305-1.658,2.745-2.544,4.211l-.036-.277c1.843,1.775,3.83,3.689,5.867,5.65l-.29-.027,4.113-2.7.12-.079.126.07a19.877,19.877,0,0,0,4.882,1.917l.143.035.035.143c.368,1.5.77,3.13,1.175,4.781l-.242-.188,8.143-.146-.239.2c.317-1.523.658-3.165,1-4.82l.031-.148.145-.042a19.735,19.735,0,0,0,4.8-2.087l0,0,.132-.078.128.079,4.207,2.551-.31.039,5.659-5.858-.029.309-2.7-4.117-.082-.125.073-.129a19.761,19.761,0,0,0,1.923-4.88l.035-.143.143-.034,4.782-1.169-.181.236q-.069-4.169-.135-8.143l.183.221-4.818-1.01-.134-.028-.037-.13a19.78,19.78,0,0,0-2.086-4.819l-.067-.112.067-.111,2.558-4.2.034.257c-2.056-1.995-4-3.877-5.848-5.669l.238.022-4.122,2.687-.091.06-.094-.053a19.893,19.893,0,0,0-4.893-1.942l-.1-.024-.024-.1c-.421-1.738-.8-3.3-1.156-4.784l.146.112-8.144.107L166.4.317c-.414,1.922-.752,3.5-1.034,4.813l-.01.047-.046.013a20.677,20.677,0,0,0-3.724,1.432l-.876.458a1.972,1.972,0,0,1-.292.148,2.551,2.551,0,0,1,.272-.184c.186-.115.468-.287.858-.495a19.289,19.289,0,0,1,3.717-1.514l-.056.061c.265-1.317.584-2.9.971-4.826L166.2.183l.09,0L174.432,0l.118,0,.029.116c.367,1.477.756,3.041,1.187,4.776l-.12-.12a20.168,20.168,0,0,1,4.989,1.947l-.186.007,4.108-2.709.128-.083.11.107,5.87,5.644.12.116-.087.143-2.543,4.211v-.224a20.2,20.2,0,0,1,2.146,4.92l-.17-.157,4.82,1,.181.038,0,.184q.074,3.97.152,8.143l0,.19-.185.046-4.78,1.175.178-.177a20.225,20.225,0,0,1-1.965,5l-.009-.254,2.7,4.115.109.165-.138.143-5.654,5.86-.139.144-.171-.1-4.207-2.55h.26l0,0a20.234,20.234,0,0,1-4.927,2.14l.177-.19c-.345,1.655-.687,3.3-1,4.82l-.04.195-.2,0-8.144.139-.2,0-.046-.19c-.4-1.651-.8-3.284-1.169-4.783l.177.178a20.27,20.27,0,0,1-5-1.971l.246-.009c-1.427.934-2.836,1.855-4.118,2.694l-.156.1-.134-.129L150.9,39.15l-.128-.124.092-.153,2.558-4.2v.224a20.2,20.2,0,0,1-2.131-4.926l.157.146L146.63,29.1l-.155-.033,0-.156c-.044-2.857-.085-5.579-.124-8.144l0-.143.138-.034,4.784-1.158-.12.12a20.134,20.134,0,0,1,1.974-4.973l.006.152-2.68-4.126-.055-.085.07-.072,5.69-5.826.046-.046.053.033,3.1,1.929.8.506a2.54,2.54,0,0,1,.27.184" transform="translate(18.198)" fill="#f5f5f5"/>
            <rect id="Rectangle_167" data-name="Rectangle 167" width="92.045" height="95.948" transform="translate(11.058 126.76)" fill="#e0e0e0"/>
            <rect id="Rectangle_168" data-name="Rectangle 168" width="92.045" height="95.948" transform="translate(4.825 126.76)" fill="#ebebeb"/>
            <rect id="Rectangle_169" data-name="Rectangle 169" width="67.298" height="70.153" transform="translate(17.198 139.659)" fill="#fafafa"/>
            <path id="Path_12256" data-name="Path 12256" d="M16.654,187.021a12.782,12.782,0,0,1-1.682,1.907c-1.079,1.128-2.594,2.659-4.287,4.328s-3.246,3.158-4.388,4.22a12.679,12.679,0,0,1-1.923,1.643,12.573,12.573,0,0,1,1.674-1.9c1.08-1.129,2.6-2.664,4.3-4.335s3.253-3.163,4.4-4.224a12.47,12.47,0,0,1,1.915-1.637" transform="translate(0.544 23.255)" fill="#e0e0e0"/>
            <path id="Path_12257" data-name="Path 12257" d="M75.151,186.868a12.811,12.811,0,0,1,1.907,1.681c1.128,1.08,2.659,2.595,4.328,4.288s3.158,3.246,4.219,4.388a12.511,12.511,0,0,1,1.643,1.923,12.541,12.541,0,0,1-1.9-1.674c-1.129-1.081-2.662-2.6-4.335-4.3s-3.164-3.253-4.225-4.4a12.41,12.41,0,0,1-1.636-1.915" transform="translate(9.345 23.236)" fill="#e0e0e0"/>
            <path id="Path_12258" data-name="Path 12258" d="M74.987,125.717a12.955,12.955,0,0,1,1.682-1.906c1.079-1.128,2.594-2.659,4.287-4.328s3.246-3.158,4.388-4.22a12.677,12.677,0,0,1,1.923-1.643,12.541,12.541,0,0,1-1.674,1.9c-1.08,1.13-2.6,2.665-4.3,4.337s-3.253,3.163-4.394,4.224a12.358,12.358,0,0,1-1.916,1.636" transform="translate(9.324 14.128)" fill="#e0e0e0"/>
            <path id="Path_12259" data-name="Path 12259" d="M16.47,125.891a12.785,12.785,0,0,1-1.907-1.682c-1.128-1.079-2.659-2.594-4.328-4.287s-3.158-3.246-4.219-4.388a12.512,12.512,0,0,1-1.643-1.923,12.54,12.54,0,0,1,1.9,1.674c1.129,1.08,2.662,2.6,4.335,4.3s3.164,3.253,4.225,4.4a12.408,12.408,0,0,1,1.636,1.915" transform="translate(0.544 14.127)" fill="#e0e0e0"/>
            <path id="Path_12260" data-name="Path 12260" d="M82.437,194.393s-.008-.118-.012-.338-.007-.557-.012-.977c-.006-.873-.015-2.139-.026-3.783-.014-3.317-.033-8.149-.057-14.293-.027-12.285-.066-29.793-.112-50.761l.22.22-67.108.033h-.006l.252-.253c-.012,25.75-.025,49.839-.035,70.153l-.217-.217,48.607.111,13.645.056,3.608.025.931.012c.21,0,.323.012.323.012s-.1.008-.3.012l-.907.012-3.565.025-13.6.056-48.745.111h-.217v-.217c-.01-20.314-.022-44.4-.036-70.153v-.252h.259l67.108.031h.22v.219c-.046,21.025-.085,38.583-.112,50.9-.025,6.122-.044,10.939-.057,14.243-.011,1.627-.02,2.878-.026,3.741-.006.41-.009.725-.012.953,0,.212-.012.314-.012.314" transform="translate(1.874 15.418)" fill="#e0e0e0"/>
            <path id="Path_12261" data-name="Path 12261" d="M31.1,150.279s-1.441,17.369,17.369,17.369c0-9.269-7.647-16.585-17.369-17.369" transform="translate(3.864 18.687)" fill="#ebebeb"/>
            <path id="Path_12262" data-name="Path 12262" d="M63.627,150.293s-17.369-1.441-17.369,17.369c9.269,0,16.585-7.647,17.369-17.369" transform="translate(5.752 18.685)" fill="#ebebeb"/>
            <path id="Path_12263" data-name="Path 12263" d="M46.472,141.835s-14.189,12.738.777,26.863c6.96-7.375,6.371-18.94-.777-26.863" transform="translate(5.022 17.637)" fill="#e0e0e0"/>
          </g>
        </g>
        <g id="Group_303" data-name="Group 303">
          <g id="Group_302" data-name="Group 302" clip-path="url(#clip-path)">
            <path id="Path_12264" data-name="Path 12264" d="M356.3,404.637c-11.656-15.395-22.517-38.173-22.364-57.729A108.22,108.22,0,0,1,356.3,404.637" transform="translate(41.523 43.137)" fill="#307e27"/>
            <path id="Path_12265" data-name="Path 12265" d="M364.315,382.5c-11.656-15.395-22.517-38.173-22.364-57.729A108.219,108.219,0,0,1,364.315,382.5" transform="translate(42.521 40.385)" fill="#307e27"/>
            <path id="Path_12266" data-name="Path 12266" d="M371.021,360.292c-11.656-15.395-22.517-38.173-22.364-57.729a108.219,108.219,0,0,1,22.364,57.729" transform="translate(43.354 37.623)" fill="#307e27"/>
            <path id="Path_12267" data-name="Path 12267" d="M376.525,336.811c-9.774-16.821-17.876-40.824-15.393-60.112a108.953,108.953,0,0,1,15.393,60.112" transform="translate(44.85 34.407)" fill="#307e27"/>
            <path id="Path_12268" data-name="Path 12268" d="M378.282,317.857c-3.355-19.343-2.648-44.58,6.371-61.225a106.429,106.429,0,0,1-6.371,61.225" transform="translate(46.809 31.912)" fill="#307e27"/>
            <path id="Path_12269" data-name="Path 12269" d="M376.612,324.6c11.4-16.246,30.174-33.908,49.14-39.613a108.7,108.7,0,0,1-49.14,39.613" transform="translate(46.831 35.438)" fill="#307e27"/>
            <path id="Path_12270" data-name="Path 12270" d="M371.827,344c13.264-15.809,34.382-32.433,54.721-36.659A113.141,113.141,0,0,1,371.827,344" transform="translate(46.236 38.217)" fill="#307e27"/>
            <path id="Path_12271" data-name="Path 12271" d="M365.689,367.864c13.264-15.809,34.381-32.433,54.721-36.659a113.142,113.142,0,0,1-54.721,36.659" transform="translate(45.473 41.185)" fill="#307e27"/>
            <path id="Path_12272" data-name="Path 12272" d="M356.057,395.861c13.265-15.808,34.381-32.432,54.721-36.659a113.127,113.127,0,0,1-54.721,36.659" transform="translate(44.275 44.666)" fill="#307e27"/>
            <path id="Path_12273" data-name="Path 12273" d="M383.21,307.645a1.152,1.152,0,0,1-.024.336c-.038.262-.085.581-.142.971q-.226,1.369-.616,3.728c-.537,3.237-1.418,7.9-2.595,13.652-2.352,11.5-6.087,27.29-11.238,44.445-2.588,8.575-5.277,16.676-7.854,24-2.615,7.307-5.085,13.845-7.294,19.281-2.193,5.443-4.042,9.817-5.387,12.81q-.98,2.177-1.55,3.445c-.169.358-.306.649-.419.888a1.2,1.2,0,0,1-.166.294,1.156,1.156,0,0,1,.1-.323c.094-.247.211-.549.353-.918l1.425-3.5c1.262-3.026,3.038-7.426,5.166-12.888,2.145-5.456,4.563-12,7.14-19.315,2.539-7.323,5.2-15.418,7.788-23.982,5.143-17.132,8.953-32.884,11.432-44.342,1.241-5.729,2.2-10.378,2.821-13.6q.474-2.341.751-3.7l.212-.959a1.184,1.184,0,0,1,.1-.323" transform="translate(43.015 38.255)" fill="#263238"/>
            <path id="Path_12274" data-name="Path 12274" d="M363.2,399.735c13.156-17.373,25.413-43.082,25.241-65.151A122.145,122.145,0,0,0,363.2,399.735" transform="translate(45.162 41.605)" fill="#307e27"/>
            <path id="Path_12275" data-name="Path 12275" d="M354.146,374.754c13.156-17.373,25.413-43.083,25.24-65.151a122.145,122.145,0,0,0-25.24,65.151" transform="translate(44.037 38.498)" fill="#307e27"/>
            <path id="Path_12276" data-name="Path 12276" d="M346.578,349.688c13.156-17.373,25.413-43.082,25.24-65.151a122.145,122.145,0,0,0-25.24,65.151" transform="translate(43.096 35.381)" fill="#307e27"/>
            <path id="Path_12277" data-name="Path 12277" d="M339.562,323.188c11.03-18.985,20.175-46.073,17.373-67.842a122.943,122.943,0,0,0-17.373,67.842" transform="translate(42.212 31.752)" fill="#307e27"/>
            <path id="Path_12278" data-name="Path 12278" d="M336.853,301.8c3.786-21.831,2.988-50.313-7.189-69.1a120.1,120.1,0,0,0,7.189,69.1" transform="translate(40.727 28.936)" fill="#307e27"/>
            <path id="Path_12279" data-name="Path 12279" d="M343.608,309.408c-12.861-18.335-34.054-38.268-55.458-44.706a122.692,122.692,0,0,0,55.458,44.706" transform="translate(35.831 32.915)" fill="#307e27"/>
            <path id="Path_12280" data-name="Path 12280" d="M349.705,331.3c-14.971-17.842-38.8-36.6-61.757-41.374A127.684,127.684,0,0,0,349.705,331.3" transform="translate(35.806 36.052)" fill="#307e27"/>
            <path id="Path_12281" data-name="Path 12281" d="M356.633,358.235c-14.971-17.842-38.8-36.6-61.757-41.374a127.684,127.684,0,0,0,61.757,41.374" transform="translate(36.667 39.401)" fill="#307e27"/>
            <path id="Path_12282" data-name="Path 12282" d="M367.5,389.833c-14.971-17.842-38.8-36.6-61.757-41.374A127.692,127.692,0,0,0,367.5,389.833" transform="translate(38.019 43.33)" fill="#307e27"/>
            <path id="Path_12283" data-name="Path 12283" d="M334.684,290.272a1.286,1.286,0,0,0,.027.379c.043.3.1.657.16,1.1q.256,1.545.7,4.207c.606,3.653,1.6,8.921,2.928,15.408,2.655,12.974,6.871,30.8,12.683,50.161,2.922,9.677,5.956,18.819,8.863,27.081,2.953,8.246,5.74,15.625,8.232,21.761,2.475,6.142,4.563,11.078,6.078,14.457l1.751,3.888c.19.4.346.732.473,1a1.282,1.282,0,0,0,.188.329,1.306,1.306,0,0,0-.11-.363c-.107-.28-.238-.62-.4-1.036l-1.608-3.948c-1.425-3.416-3.428-8.382-5.831-14.546-2.422-6.157-5.15-13.55-8.058-21.8-2.865-8.265-5.872-17.4-8.79-27.067-5.8-19.335-10.1-37.111-12.9-50.044-1.4-6.466-2.48-11.711-3.184-15.345q-.535-2.641-.847-4.178c-.1-.435-.177-.792-.241-1.083a1.326,1.326,0,0,0-.11-.364" transform="translate(41.616 36.095)" fill="#263238"/>
            <path id="Path_12284" data-name="Path 12284" d="M375.458,460.25H334.482l-7.639-56.471h56.471Z" transform="translate(40.642 50.209)" fill="#455a64"/>
            <rect id="Rectangle_171" data-name="Rectangle 171" width="66.623" height="8.778" transform="translate(362.409 453.412)" fill="#455a64"/>
            <path id="Path_12285" data-name="Path 12285" d="M388.867,411.243c0,.162-14.745.292-32.929.292s-32.932-.13-32.932-.292,14.741-.292,32.932-.292,32.929.13,32.929.292" transform="translate(40.165 51.101)" fill="#263238"/>
          </g>
        </g>
        <g id="Group_305" data-name="Group 305">
          <g id="Group_304" data-name="Group 304" clip-path="url(#clip-path)">
            <path id="Path_12286" data-name="Path 12286" d="M321.234,505.212H141.4a28.5,28.5,0,0,1-28.5-28.5V64.728a28.5,28.5,0,0,1,28.5-28.5H321.234a28.5,28.5,0,0,1,28.5,28.5V476.716a28.5,28.5,0,0,1-28.5,28.5" transform="translate(14.039 4.505)" fill="#455a64"/>
            <path id="Path_12287" data-name="Path 12287" d="M116.219,476.078V64.54a24.99,24.99,0,0,1,24.99-24.99H320.6a24.99,24.99,0,0,1,24.991,24.99V476.078a24.99,24.99,0,0,1-24.991,24.99H141.209a24.99,24.99,0,0,1-24.99-24.99" transform="translate(14.452 4.918)" fill="#263238"/>
            <path id="Path_12288" data-name="Path 12288" d="M203.382,53.279a2.634,2.634,0,1,1,0-5.268h33.871a2.634,2.634,0,1,1,0,5.268Z" transform="translate(24.963 5.97)" fill="#455a64"/>
            <path id="Path_12289" data-name="Path 12289" d="M187.23,53.279a2.634,2.634,0,1,1,2.633-2.633,2.637,2.637,0,0,1-2.633,2.633" transform="translate(22.954 5.97)" fill="#455a64"/>
            <path id="Path_12290" data-name="Path 12290" d="M195.851,53.279a2.634,2.634,0,1,1,2.633-2.633,2.637,2.637,0,0,1-2.633,2.633" transform="translate(24.026 5.97)" fill="#455a64"/>
            <path id="Path_12291" data-name="Path 12291" d="M249.79,53.279a2.634,2.634,0,1,1,2.633-2.633,2.637,2.637,0,0,1-2.633,2.633" transform="translate(30.733 5.97)" fill="#455a64"/>
            <path id="Path_12292" data-name="Path 12292" d="M241.169,53.279a2.634,2.634,0,1,1,2.633-2.633,2.637,2.637,0,0,1-2.633,2.633" transform="translate(29.661 5.97)" fill="#455a64"/>
            <path id="Path_12293" data-name="Path 12293" d="M323.388,42.365h-41a6.954,6.954,0,0,0-6.677,5.015L273.1,56.362a7.783,7.783,0,0,1-7.476,5.615H195a7.785,7.785,0,0,1-7.477-5.615l-2.607-8.982a6.953,6.953,0,0,0-6.676-5.015H146.353a25.388,25.388,0,0,0-25.388,25.388V477.34a17.159,17.159,0,0,0,17.159,17.16H324.589a15.07,15.07,0,0,0,15.07-15.071V58.635a16.271,16.271,0,0,0-16.27-16.27" transform="translate(15.042 5.268)" fill="#fafafa"/>
            <path id="Path_12294" data-name="Path 12294" d="M332.336,49.925a25.3,25.3,0,0,0-18.065-7.56h-37.1l-5.693,19.611H189.148l-5.693-19.611h-45.9a16.588,16.588,0,0,0-16.589,16.587V355.518l.651.074c21.315,2.316,42.053-11.085,53.754-29.051s15.833-39.781,17.894-61.122,2.317-42.987,7.33-63.834a144.5,144.5,0,0,1,60.735-86.193c14.874-9.726,31.526-16.656,45.706-27.366,12.476-9.422,23.209-22.9,25.3-38.1" transform="translate(15.042 5.268)" fill="#f5f5f5"/>
            <path id="Path_12295" data-name="Path 12295" d="M326.116,449.86V318.635c-33.67,3.411-65.183,23.8-82.1,53.109-15.257,26.437-18.281,59.524-8.535,88.4H315.83a10.286,10.286,0,0,0,10.285-10.285" transform="translate(28.584 39.622)" fill="#f5f5f5"/>
            <path id="Path_12296" data-name="Path 12296" d="M323.533,126.892h.353a1.2,1.2,0,0,1,1.2,1.2v51.5a1.2,1.2,0,0,1-1.2,1.2h-.353Z" transform="translate(40.231 15.779)" fill="#455a64"/>
            <path id="Path_12297" data-name="Path 12297" d="M113.078,156.436h-.412a1.2,1.2,0,0,0-1.2,1.2v31.729a1.2,1.2,0,0,0,1.2,1.2h.412Z" transform="translate(13.861 19.452)" fill="#455a64"/>
            <path id="Path_12298" data-name="Path 12298" d="M113.078,116.783h-.412a1.2,1.2,0,0,0-1.2,1.2v31.729a1.2,1.2,0,0,0,1.2,1.2h.412Z" transform="translate(13.861 14.522)" fill="#455a64"/>
            <path id="Path_12299" data-name="Path 12299" d="M113.053,87.018h-.323a1.065,1.065,0,0,0-1.065,1.066V101.82a1.065,1.065,0,0,0,1.065,1.065h.323Z" transform="translate(13.885 10.82)" fill="#455a64"/>
            <rect id="Rectangle_173" data-name="Rectangle 173" width="1.626" height="2.281" transform="translate(301.61 62.892)" fill="#263238"/>
            <rect id="Rectangle_174" data-name="Rectangle 174" width="1.626" height="3.297" transform="translate(304.257 61.876)" fill="#263238"/>
            <rect id="Rectangle_175" data-name="Rectangle 175" width="1.626" height="4.059" transform="translate(306.905 61.114)" fill="#263238"/>
            <rect id="Rectangle_176" data-name="Rectangle 176" width="1.626" height="5.533" transform="translate(309.553 59.64)" fill="#263238"/>
            <path id="Path_12300" data-name="Path 12300" d="M299.092,58.644h-8.165a.586.586,0,0,1-.586-.585V54a.584.584,0,0,1,.58-.586h8.171a.148.148,0,0,1,.15.15V54.9h.874a.149.149,0,0,1,.15.15v1.956a.149.149,0,0,1-.15.15h-.874V58.5a.149.149,0,0,1-.15.148m-.15-4.93h-8.021a.279.279,0,0,0-.281.286V58.06a.288.288,0,0,0,.287.287h8.015V57.008a.149.149,0,0,1,.15-.15h.874V55.2h-.874a.149.149,0,0,1-.15-.15Z" transform="translate(36.103 6.642)" fill="#263238"/>
            <path id="Path_12301" data-name="Path 12301" d="M291.2,57.572v-3.3h6.97v3.3Z" transform="translate(36.21 6.749)" fill="#263238"/>
            <path id="Path_12302" data-name="Path 12302" d="M283.821,57.855a.6.6,0,1,0-.6.6.6.6,0,0,0,.6-.6" transform="translate(35.144 7.12)" fill="#263238"/>
            <path id="Path_12303" data-name="Path 12303" d="M281.348,56.6l.761.761a1.8,1.8,0,0,1,2.548,0l.761-.761a2.875,2.875,0,0,0-4.07,0" transform="translate(34.985 6.933)" fill="#263238"/>
            <path id="Path_12304" data-name="Path 12304" d="M283.516,54.249a4.564,4.564,0,0,0-3.235,1.342l.761.761a3.495,3.495,0,0,1,4.946,0l.762-.761a4.564,4.564,0,0,0-3.235-1.342" transform="translate(34.852 6.746)" fill="#263238"/>
            <path id="Path_12305" data-name="Path 12305" d="M279.179,54.545l.762.761a5.246,5.246,0,0,1,7.424,0l.762-.761a6.321,6.321,0,0,0-8.949,0" transform="translate(34.715 6.552)" fill="#263238"/>
            <path id="Path_12306" data-name="Path 12306" d="M272.28,202.549a28.887,28.887,0,1,1-28.887-28.888,28.887,28.887,0,0,1,28.887,28.888" transform="translate(26.673 21.594)" fill="#f5f5f5"/>
            <path id="Path_12307" data-name="Path 12307" d="M149.478,149.224c0-7.342,3.853-11.72,9.186-11.72s9.219,4.378,9.219,11.72-3.885,11.72-9.219,11.72-9.186-4.378-9.186-11.72m15.968,0c0-6.157-2.765-9.548-6.782-9.548s-6.782,3.391-6.782,9.548,2.766,9.548,6.782,9.548,6.782-3.392,6.782-9.548" transform="translate(18.587 17.098)" fill="#263238"/>
            <path id="Path_12308" data-name="Path 12308" d="M185.564,149.026c0,7.836-4.279,11.918-10.534,11.918a10.579,10.579,0,0,1-5.465-1.25l.955-1.91A8.077,8.077,0,0,0,175,158.871c4.971,0,8.164-3.194,8.164-9.449,0-.527-.033-1.185-.1-1.877-1.152,2.534-3.851,3.951-7.045,3.951-4.576,0-7.769-2.7-7.769-6.915,0-4.313,3.391-7.078,7.868-7.078,6.123,0,9.448,4.247,9.448,11.522m-3.258-4.576c0-2.534-2.107-4.938-6.091-4.938-3.325,0-5.63,1.942-5.63,5,0,3.029,2.239,4.971,5.794,4.971,3.523,0,5.926-2.172,5.926-5.037" transform="translate(20.921 17.098)" fill="#263238"/>
            <path id="Path_12309" data-name="Path 12309" d="M186.725,144.436a1.743,1.743,0,0,1,1.745-1.778,1.771,1.771,0,0,1,1.779,1.778,1.8,1.8,0,0,1-1.779,1.81,1.771,1.771,0,0,1-1.745-1.81m0,14.025a1.744,1.744,0,0,1,1.745-1.779,1.772,1.772,0,0,1,1.779,1.779,1.8,1.8,0,0,1-1.779,1.81,1.771,1.771,0,0,1-1.745-1.81" transform="translate(23.219 17.739)" fill="#263238"/>
            <path id="Path_12310" data-name="Path 12310" d="M192.9,149.224c0-7.342,3.852-11.72,9.186-11.72s9.217,4.378,9.217,11.72-3.885,11.72-9.217,11.72-9.186-4.378-9.186-11.72m15.968,0c0-6.157-2.766-9.548-6.782-9.548s-6.782,3.391-6.782,9.548,2.765,9.548,6.782,9.548,6.782-3.392,6.782-9.548" transform="translate(23.987 17.098)" fill="#263238"/>
            <path id="Path_12311" data-name="Path 12311" d="M212.288,149.224c0-7.342,3.853-11.72,9.187-11.72s9.217,4.378,9.217,11.72-3.885,11.72-9.217,11.72-9.187-4.378-9.187-11.72m15.969,0c0-6.157-2.766-9.548-6.782-9.548s-6.783,3.391-6.783,9.548,2.766,9.548,6.783,9.548,6.782-3.392,6.782-9.548" transform="translate(26.397 17.098)" fill="#263238"/>
            <path id="Path_12312" data-name="Path 12312" d="M304.355,117.225H155.946a14.761,14.761,0,0,1,0-29.522H304.355a14.761,14.761,0,0,1,0,29.522" transform="translate(17.556 10.906)" fill="#e0e0e0"/>
            <path id="Path_12313" data-name="Path 12313" d="M283.51,107.087a5.632,5.632,0,1,1,5.632-5.632,5.638,5.638,0,0,1-5.632,5.632m0-10.139a4.508,4.508,0,1,0,4.508,4.508,4.513,4.513,0,0,0-4.508-4.508" transform="translate(34.553 11.915)" fill="#263238"/>
            <path id="Path_12314" data-name="Path 12314" d="M290.081,107.622a.554.554,0,0,1-.37-.139l-3.7-3.239a.562.562,0,0,1,.74-.847l3.7,3.24a.562.562,0,0,1-.37.985" transform="translate(35.54 12.84)" fill="#263238"/>
            <path id="Path_12315" data-name="Path 12315" d="M285.2,158.449a9.6,9.6,0,0,0,1.191-.053,6.2,6.2,0,0,0,3.041-1.33,5.936,5.936,0,0,0,1.531-1.817,5.488,5.488,0,0,0,.5-1.255,5.857,5.857,0,0,0,.165-1.443,6.373,6.373,0,0,0-.229-1.531,6.736,6.736,0,0,0-.648-1.508,5.9,5.9,0,0,0-2.571-2.354l-.057-.026,0-.064a4.238,4.238,0,0,0-7.251-3.159l-.142.142-.042-.2a8.2,8.2,0,0,0-5.03-5.754,7.756,7.756,0,0,0-2.034-.509,3.192,3.192,0,0,0-.517-.038c-.173,0-.346-.015-.518-.009a7.351,7.351,0,0,0-1.021.116A7.712,7.712,0,0,0,268,139.381a8.785,8.785,0,0,0-2.288,3.037,7.76,7.76,0,0,0-.67,3.507l.007.135-.13-.033a5.894,5.894,0,0,0-3.955.469,7.084,7.084,0,0,0-1.565,1.058,6.77,6.77,0,0,0-1.131,1.383,5.77,5.77,0,0,0-.622,1.556,5.266,5.266,0,0,0-.11,1.557,6.1,6.1,0,0,0,.82,2.628,6.317,6.317,0,0,0,2.83,2.619,8.345,8.345,0,0,0,1.324.435.419.419,0,0,1-.09-.011l-.264-.051a2.416,2.416,0,0,1-.426-.107,4.393,4.393,0,0,1-.57-.209,6.313,6.313,0,0,1-2.905-2.616,6.185,6.185,0,0,1-.86-2.676,5.415,5.415,0,0,1,.1-1.6,5.931,5.931,0,0,1,.631-1.606,6.93,6.93,0,0,1,1.155-1.428,7.215,7.215,0,0,1,1.6-1.094,6.076,6.076,0,0,1,4.085-.5l-.123.1a7.95,7.95,0,0,1,.677-3.6,8.984,8.984,0,0,1,2.339-3.117,7.929,7.929,0,0,1,3.679-1.774,7.458,7.458,0,0,1,1.054-.119c.177-.006.355.006.533.008a3.276,3.276,0,0,1,.534.04,7.9,7.9,0,0,1,2.091.523,8.408,8.408,0,0,1,5.16,5.916l-.182-.054a4.439,4.439,0,0,1,7.594,3.32l-.055-.09a6.068,6.068,0,0,1,2.642,2.438,6.977,6.977,0,0,1,.655,1.552,6.473,6.473,0,0,1,.225,1.574,6,6,0,0,1-.179,1.48,5.653,5.653,0,0,1-.525,1.283,6.031,6.031,0,0,1-1.58,1.838,6.147,6.147,0,0,1-3.1,1.3,4.681,4.681,0,0,1-.893.025c-.2-.013-.3-.028-.3-.028" transform="translate(32.003 17.076)" fill="#263238"/>
            <path id="Path_12316" data-name="Path 12316" d="M285.838,159.113a3.152,3.152,0,0,1-.325-.015c-.211-.015-.326-.03-.326-.03a.565.565,0,0,1-.314-.964.66.66,0,0,1,.527-.16,5.783,5.783,0,0,0,.983-.045,5.652,5.652,0,0,0,2.76-1.21,5.388,5.388,0,0,0,1.39-1.647,5.12,5.12,0,0,0,.457-1.143,5.274,5.274,0,0,0,.143-1.276,5.823,5.823,0,0,0-.208-1.389,6.149,6.149,0,0,0-.592-1.377,5.347,5.347,0,0,0-2.318-2.126.651.651,0,0,1-.386-.567,3.829,3.829,0,0,0-2.042-3.512,3.786,3.786,0,0,0-4.248.715l-.139.141a.562.562,0,0,1-.95-.278l-.042-.2a7.641,7.641,0,0,0-4.685-5.347,7.082,7.082,0,0,0-1.879-.472,3.807,3.807,0,0,0-.465-.037l-.208-.006c-.1,0-.2-.008-.3,0l-.249.02a4.1,4.1,0,0,0-.661.081,7.2,7.2,0,0,0-3.347,1.607,8.2,8.2,0,0,0-2.135,2.836,7.2,7.2,0,0,0-.622,3.247l.008.13a.568.568,0,0,1-.2.465.556.556,0,0,1-.495.112l-.13-.033a5.307,5.307,0,0,0-3.574.43,6.5,6.5,0,0,0-1.438.973A6.193,6.193,0,0,0,258.8,149.3a5.24,5.24,0,0,0-.552,1.384,4.627,4.627,0,0,0-.1,1.378,5.54,5.54,0,0,0,.745,2.4,5.778,5.778,0,0,0,2.577,2.39,5.471,5.471,0,0,0,1.1.362.654.654,0,0,1,.476.29.57.57,0,0,1,.065.436.656.656,0,0,1-.732.4l-.27-.051a3.185,3.185,0,0,1-.519-.134l-.127-.042a3.134,3.134,0,0,1-.5-.195,6.845,6.845,0,0,1-3.135-2.831,6.758,6.758,0,0,1-.935-2.917,5.854,5.854,0,0,1,.111-1.755,6.448,6.448,0,0,1,.693-1.773,7.423,7.423,0,0,1,1.258-1.561,7.782,7.782,0,0,1,1.737-1.188,6.7,6.7,0,0,1,3.648-.68,8.723,8.723,0,0,1,.726-3.04,9.549,9.549,0,0,1,2.487-3.318,8.494,8.494,0,0,1,3.95-1.9,5.375,5.375,0,0,1,.837-.106l.261-.02c.163-.007.292,0,.421,0l.173,0a3.645,3.645,0,0,1,.615.047,8.259,8.259,0,0,1,2.2.552,9.138,9.138,0,0,1,5.227,5.317,4.989,4.989,0,0,1,7.706,3.984,6.726,6.726,0,0,1,2.51,2.47,7.494,7.494,0,0,1,.713,1.681,7.081,7.081,0,0,1,.247,1.715,6.6,6.6,0,0,1-.2,1.628,5.992,5.992,0,0,1-.588,1.437,6.533,6.533,0,0,1-1.716,1.995,6.7,6.7,0,0,1-3.385,1.416,6.572,6.572,0,0,1-.687.04" transform="translate(31.941 17.013)" fill="#263238"/>
            <path id="Path_12317" data-name="Path 12317" d="M270.627,152.532a23.232,23.232,0,0,1-1.559,2.81,23.513,23.513,0,0,1-1.75,2.7,46.527,46.527,0,0,1,3.309-5.5" transform="translate(33.24 18.967)" fill="#263238"/>
            <path id="Path_12318" data-name="Path 12318" d="M267.423,158.711a.668.668,0,0,1-.327-.128c-.54-.325-.535-.425,1.365-3.582,1.718-2.859,1.851-2.892,2.091-2.951a.565.565,0,0,1,.426.063h0a.58.58,0,0,1,.257.346c.06.242.093.373-1.626,3.234-1.458,2.424-1.846,3.015-2.191,3.017" transform="translate(33.174 18.905)" fill="#263238"/>
            <path id="Path_12319" data-name="Path 12319" d="M275.238,152.532a23.231,23.231,0,0,1-1.56,2.81,23.513,23.513,0,0,1-1.749,2.7,46.521,46.521,0,0,1,3.309-5.5" transform="translate(33.813 18.967)" fill="#263238"/>
            <path id="Path_12320" data-name="Path 12320" d="M272,158.661a.576.576,0,0,1-.3-.081c-.533-.323-.528-.423,1.368-3.58,1.718-2.859,1.852-2.892,2.092-2.953a.582.582,0,0,1,.431.065c.534.324.528.423-1.37,3.58-1.718,2.859-1.851,2.893-2.091,2.953a.555.555,0,0,1-.135.016" transform="translate(33.748 18.905)" fill="#263238"/>
            <path id="Path_12321" data-name="Path 12321" d="M279.849,152.532a46.727,46.727,0,0,1-3.31,5.5,46.333,46.333,0,0,1,3.31-5.5" transform="translate(34.387 18.967)" fill="#263238"/>
            <path id="Path_12322" data-name="Path 12322" d="M276.645,158.711a.668.668,0,0,1-.327-.128c-.54-.325-.535-.425,1.365-3.582,1.718-2.859,1.851-2.892,2.091-2.951a.564.564,0,0,1,.426.063h0a.581.581,0,0,1,.258.346c.06.242.093.373-1.626,3.234-1.458,2.424-1.846,3.015-2.191,3.017" transform="translate(34.321 18.905)" fill="#263238"/>
            <path id="Path_12323" data-name="Path 12323" d="M265.289,159.4a46.514,46.514,0,0,1-3.309,5.5,46.533,46.533,0,0,1,3.309-5.5" transform="translate(32.576 19.821)" fill="#263238"/>
            <path id="Path_12324" data-name="Path 12324" d="M262.046,165.536a.567.567,0,0,1-.552-.429c-.061-.241-.093-.373,1.626-3.232,1.893-3.15,1.98-3.209,2.517-2.888l0,0c.534.323.53.422-1.368,3.58-1.72,2.859-1.852,2.892-2.092,2.951a.548.548,0,0,1-.135.017" transform="translate(32.514 19.754)" fill="#263238"/>
            <path id="Path_12325" data-name="Path 12325" d="M269.9,159.4a46.53,46.53,0,0,1-3.309,5.5,46.505,46.505,0,0,1,3.309-5.5" transform="translate(33.15 19.821)" fill="#263238"/>
            <path id="Path_12326" data-name="Path 12326" d="M266.658,165.535a.564.564,0,0,1-.552-.428c-.061-.241-.093-.372,1.625-3.233,1.9-3.158,1.983-3.209,2.518-2.89l.009.006c.526.324.522.424-1.374,3.577-1.718,2.859-1.851,2.893-2.091,2.953a.545.545,0,0,1-.135.016" transform="translate(33.087 19.753)" fill="#263238"/>
            <path id="Path_12327" data-name="Path 12327" d="M274.511,159.4a23.229,23.229,0,0,1-1.56,2.81,23.526,23.526,0,0,1-1.749,2.7,46.505,46.505,0,0,1,3.309-5.5" transform="translate(33.723 19.821)" fill="#263238"/>
            <path id="Path_12328" data-name="Path 12328" d="M271.268,165.536a.567.567,0,0,1-.552-.429c-.061-.241-.093-.373,1.626-3.232,1.895-3.15,1.98-3.209,2.517-2.888l0,0c.534.323.53.422-1.367,3.58-1.721,2.859-1.853,2.892-2.094,2.951a.547.547,0,0,1-.135.017" transform="translate(33.66 19.754)" fill="#263238"/>
            <path id="Path_12329" data-name="Path 12329" d="M279.326,159.505a23.237,23.237,0,0,1-1.559,2.81,23.52,23.52,0,0,1-1.749,2.7,46.507,46.507,0,0,1,3.309-5.5" transform="translate(34.322 19.834)" fill="#263238"/>
            <path id="Path_12330" data-name="Path 12330" d="M276.123,165.682a.665.665,0,0,1-.327-.127c-.54-.325-.535-.425,1.365-3.582,1.719-2.859,1.851-2.892,2.091-2.951a.57.57,0,0,1,.426.063h0a.581.581,0,0,1,.257.345c.06.242.092.373-1.626,3.235-1.458,2.424-1.846,3.016-2.191,3.016" transform="translate(34.256 19.772)" fill="#263238"/>
            <path id="Path_12331" data-name="Path 12331" d="M205.077,364.718a4.764,4.764,0,1,1-4.764-4.764,4.764,4.764,0,0,1,4.764,4.764" transform="translate(24.316 44.759)" fill="#ebebeb"/>
            <path id="Path_12332" data-name="Path 12332" d="M219.245,364.718a4.764,4.764,0,1,1-4.764-4.764,4.764,4.764,0,0,1,4.764,4.764" transform="translate(26.078 44.759)" fill="#e0e0e0"/>
            <path id="Path_12333" data-name="Path 12333" d="M233.413,364.718a4.764,4.764,0,1,1-4.764-4.764,4.764,4.764,0,0,1,4.764,4.764" transform="translate(27.84 44.759)" fill="#e0e0e0"/>
            <path id="Path_12334" data-name="Path 12334" d="M247.581,364.718a4.764,4.764,0,1,1-4.764-4.764,4.764,4.764,0,0,1,4.764,4.764" transform="translate(29.601 44.759)" fill="#e0e0e0"/>
            <path id="Path_12335" data-name="Path 12335" d="M167.579,423.671h-18a10.2,10.2,0,0,1-10.2-10.2v-18a10.2,10.2,0,0,1,10.2-10.2h18a10.2,10.2,0,0,1,10.2,10.2v18a10.2,10.2,0,0,1-10.2,10.2" transform="translate(17.332 47.908)" fill="#307e27"/>
            <path id="Path_12336" data-name="Path 12336" d="M209.539,423.353H192.762a10.809,10.809,0,0,1-10.811-10.809V395.764a10.81,10.81,0,0,1,10.811-10.809h16.778a10.81,10.81,0,0,1,10.811,10.809v16.779a10.809,10.809,0,0,1-10.811,10.809" transform="translate(22.625 47.868)" fill="#e0e0e0"/>
            <path id="Path_12337" data-name="Path 12337" d="M251.5,423.036H235.941a11.42,11.42,0,0,1-11.42-11.42V396.058a11.419,11.419,0,0,1,11.42-11.42H251.5a11.42,11.42,0,0,1,11.42,11.42v15.558a11.421,11.421,0,0,1-11.42,11.42" transform="translate(27.919 47.829)" fill="#455a64"/>
            <path id="Path_12338" data-name="Path 12338" d="M293.935,423.671H278.644a11.554,11.554,0,0,1-11.554-11.554V396.826a11.553,11.553,0,0,1,11.554-11.553h15.291a11.553,11.553,0,0,1,11.554,11.553v15.291a11.554,11.554,0,0,1-11.554,11.554" transform="translate(33.212 47.908)" fill="#263238"/>
            <path id="Path_12339" data-name="Path 12339" d="M167.672,349.739H149.489a10.108,10.108,0,0,1-10.108-10.108V321.448a10.107,10.107,0,0,1,10.108-10.107h18.183a10.107,10.107,0,0,1,10.108,10.107v18.183a10.108,10.108,0,0,1-10.108,10.108" transform="translate(17.332 38.715)" fill="#455a64"/>
            <path id="Path_12340" data-name="Path 12340" d="M208.5,349.422H193.8a11.851,11.851,0,0,1-11.852-11.852v-14.7A11.851,11.851,0,0,1,193.8,311.024h14.7a11.852,11.852,0,0,1,11.852,11.851v14.7A11.852,11.852,0,0,1,208.5,349.422" transform="translate(22.625 38.675)" fill="#263238"/>
            <path id="Path_12341" data-name="Path 12341" d="M252.433,349.1H235.008a10.487,10.487,0,0,1-10.487-10.487V321.193a10.487,10.487,0,0,1,10.487-10.487h17.425a10.487,10.487,0,0,1,10.486,10.487v17.424A10.487,10.487,0,0,1,252.433,349.1" transform="translate(27.919 38.636)" fill="#e0e0e0"/>
            <path id="Path_12342" data-name="Path 12342" d="M294.022,348.786H278.558a11.467,11.467,0,0,1-11.466-11.467V321.855a11.467,11.467,0,0,1,11.466-11.467h15.464a11.467,11.467,0,0,1,11.467,11.467v15.463a11.467,11.467,0,0,1-11.467,11.467" transform="translate(33.212 38.596)" fill="#307e27"/>
            <path id="Path_12343" data-name="Path 12343" d="M153.4,322.647a8.013,8.013,0,0,1,1.938-.843l.4-1.917,3.24-.057.467,1.9a7.987,7.987,0,0,1,1.966.775l1.638-1.074,2.332,2.251-1.015,1.675a7.959,7.959,0,0,1,.842,1.937l1.918.4.056,3.239-1.9.467a7.945,7.945,0,0,1-.774,1.966l1.074,1.638-2.251,2.331-1.675-1.015a7.951,7.951,0,0,1-1.938.843l-.4,1.918-3.24.057-.467-1.9a7.967,7.967,0,0,1-1.966-.776L152,337.538l-2.332-2.252,1.015-1.673a7.985,7.985,0,0,1-.842-1.938l-1.918-.4-.056-3.242,1.9-.464a7.925,7.925,0,0,1,.774-1.966l-1.074-1.638,2.252-2.332Zm1.088,3.9a4.223,4.223,0,1,0,5.973-.1,4.225,4.225,0,0,0-5.973.1" transform="translate(18.387 39.77)" fill="#fff"/>
            <path id="Path_12344" data-name="Path 12344" d="M233.634,412.158l1.4-5.219a9.658,9.658,0,1,1,3.848,3.814Zm5.507-3.362.331.2a7.841,7.841,0,1,0-2.683-2.658l.2.333-.781,2.914Z" transform="translate(29.052 48.825)" fill="#fff"/>
            <path id="Path_12345" data-name="Path 12345" d="M246.376,403.094a1.616,1.616,0,0,0-1.38-.31c-.359.146-.588.707-.821.994a.344.344,0,0,1-.444.1,6.249,6.249,0,0,1-3.119-2.673.384.384,0,0,1,.047-.523,2.106,2.106,0,0,0,.568-.92,2.012,2.012,0,0,0-.254-1.09,2.573,2.573,0,0,0-.8-1.211,1.1,1.1,0,0,0-1.2.178,2.43,2.43,0,0,0-.842,1.924,2.711,2.711,0,0,0,.076.611,5.037,5.037,0,0,0,.586,1.35,10.586,10.586,0,0,0,.611.93,9.451,9.451,0,0,0,2.652,2.462,8.081,8.081,0,0,0,1.654.787,3.685,3.685,0,0,0,1.926.3,2.331,2.331,0,0,0,1.746-1.3,1.14,1.14,0,0,0,.081-.662c-.1-.456-.718-.727-1.087-.949" transform="translate(29.611 49.41)" fill="#fff" fill-rule="evenodd"/>
            <path id="Path_12346" data-name="Path 12346" d="M164.219,405.609a3.077,3.077,0,0,0-2.622-.59c-.681.279-1.115,1.345-1.557,1.889a.653.653,0,0,1-.844.183,11.88,11.88,0,0,1-5.926-5.076.728.728,0,0,1,.092-.993,4,4,0,0,0,1.076-1.748,3.825,3.825,0,0,0-.48-2.069,4.9,4.9,0,0,0-1.528-2.3,2.093,2.093,0,0,0-2.272.338,4.614,4.614,0,0,0-1.6,3.655,5.21,5.21,0,0,0,.144,1.159,9.6,9.6,0,0,0,1.113,2.565,20.172,20.172,0,0,0,1.161,1.766,17.928,17.928,0,0,0,5.038,4.678,15.279,15.279,0,0,0,3.143,1.494,6.986,6.986,0,0,0,3.658.578,4.43,4.43,0,0,0,3.316-2.467,2.152,2.152,0,0,0,.154-1.259c-.189-.867-1.363-1.383-2.064-1.8" transform="translate(18.473 49.08)" fill="#fff" fill-rule="evenodd"/>
            <path id="Path_12347" data-name="Path 12347" d="M289.634,396.878A1.122,1.122,0,1,0,290.756,398a1.122,1.122,0,0,0-1.122-1.122" transform="translate(35.876 49.351)" fill="#fff"/>
            <path id="Path_12348" data-name="Path 12348" d="M285.6,397.87a4.713,4.713,0,1,0,4.712,4.713,4.718,4.718,0,0,0-4.712-4.713m0,7.731a3.018,3.018,0,1,1,3.019-3.018A3.022,3.022,0,0,1,285.6,405.6" transform="translate(34.927 49.474)" fill="#fff"/>
            <path id="Path_12349" data-name="Path 12349" d="M289.881,412.973h-7.639a5.754,5.754,0,0,1-5.748-5.748v-7.639a5.753,5.753,0,0,1,5.748-5.747h7.639a5.753,5.753,0,0,1,5.748,5.747v7.639a5.754,5.754,0,0,1-5.748,5.748m-7.639-17.334a3.952,3.952,0,0,0-3.948,3.948v7.639a3.953,3.953,0,0,0,3.948,3.949h7.639a3.953,3.953,0,0,0,3.948-3.949v-7.639a3.952,3.952,0,0,0-3.948-3.948Z" transform="translate(34.382 48.973)" fill="#fff"/>
            <path id="Path_12350" data-name="Path 12350" d="M191.564,412.415a.844.844,0,0,1-.6-.25.854.854,0,0,1,0-1.205l4.563-4.564a7.86,7.86,0,0,1,.568-10.4,7.8,7.8,0,1,1,.638,11.6l-4.561,4.56a.843.843,0,0,1-.6.25m10.045-17a6.094,6.094,0,1,0,4.312,1.787,6.059,6.059,0,0,0-4.312-1.787" transform="translate(23.715 48.958)" fill="#fff"/>
            <path id="Path_12351" data-name="Path 12351" d="M231.509,168.1c0,.162-18.013.292-40.229.292s-40.234-.13-40.234-.292,18.01-.292,40.234-.292,40.229.13,40.229.292" transform="translate(18.782 20.866)" fill="#263238"/>
            <path id="Path_12352" data-name="Path 12352" d="M201.584,328.93a4.715,4.715,0,0,0,2.81-4.362,4.432,4.432,0,1,0-8.845-.042,4.71,4.71,0,0,0,2.819,4.4c-6.807,1.025-6.5,8.422-6.5,8.422l16.094.074s.368-7.478-6.38-8.5" transform="translate(23.858 39.77)" fill="#fff"/>
            <path id="Path_12353" data-name="Path 12353" d="M255.463,334.708a5.4,5.4,0,0,0-1.068-5.732,6.009,6.009,0,0,0-5.881-1.907,6.576,6.576,0,0,0-13.042.848,4.923,4.923,0,0,0-3.759,6.679Z" transform="translate(28.77 39.998)" fill="#fff"/>
            <path id="Path_12354" data-name="Path 12354" d="M287.455,333.548a1.565,1.565,0,1,1-1.558-1.573,1.566,1.566,0,0,1,1.558,1.573" transform="translate(35.355 41.28)" fill="#fff"/>
            <path id="Path_12355" data-name="Path 12355" d="M283.1,331.931a4.338,4.338,0,0,1,6.276-.083.881.881,0,0,0,1.251-1.238,6.12,6.12,0,0,0-8.767.071c-.781.82.455,2.073,1.239,1.25" transform="translate(35.018 40.885)" fill="#fff"/>
            <path id="Path_12356" data-name="Path 12356" d="M278.374,325.67a12.819,12.819,0,0,1,8.4-3.361,12.468,12.468,0,0,1,8.573,3.281c.825.775,2.079-.462,1.251-1.239a14.3,14.3,0,0,0-9.817-3.8,14.714,14.714,0,0,0-9.651,3.87c-.859.743.385,1.99,1.239,1.251" transform="translate(34.425 39.86)" fill="#fff"/>
            <path id="Path_12357" data-name="Path 12357" d="M280.235,329.206a8.613,8.613,0,0,1,12.656-.181c.792.814,2.043-.426,1.251-1.239a10.37,10.37,0,0,0-15.146.17c-.769.83.468,2.085,1.239,1.25" transform="translate(34.662 40.361)" fill="#fff"/>
          </g>
        </g>
        <g id="Group_313" data-name="Group 313">
          <g id="Group_312" data-name="Group 312" clip-path="url(#clip-path)">
            <path id="Path_12358" data-name="Path 12358" d="M84.3,420.9l-.414,23.43s23.678,8.291,24.022,12.627l-45.46.83L61.6,421.258Z" transform="translate(7.66 52.338)" fill="#307e27"/>
            <path id="Path_12359" data-name="Path 12359" d="M69.032,440.229a1.856,1.856,0,0,0-1.245,2.142,1.784,1.784,0,0,0,2.112,1.253,1.958,1.958,0,0,0,1.306-2.276,1.852,1.852,0,0,0-2.341-1.059" transform="translate(8.423 54.731)" fill="#e0e0e0"/>
            <path id="Path_12360" data-name="Path 12360" d="M62.356,454.12l.058-3.686,43.564.584s2.04.843,1.837,2.272Z" transform="translate(7.754 56.01)" fill="#263238"/>
            <path id="Path_12361" data-name="Path 12361" d="M82.527,441.547c0,.223-1.112.343-2.19,1.077-1.1.7-1.644,1.678-1.851,1.593-.2-.039.1-1.373,1.425-2.239s2.661-.636,2.616-.432" transform="translate(9.752 54.881)" fill="#263238"/>
            <path id="Path_12362" data-name="Path 12362" d="M86.674,443.212c.054.214-.9.609-1.637,1.562-.765.931-.937,1.95-1.158,1.944-.207.038-.385-1.258.554-2.425s2.232-1.292,2.241-1.081" transform="translate(10.41 55.102)" fill="#263238"/>
            <path id="Path_12363" data-name="Path 12363" d="M88.879,448.661c-.2.051-.53-1.052.018-2.279s1.576-1.728,1.674-1.545c.129.18-.533.844-.967,1.857-.459,1-.5,1.941-.725,1.966" transform="translate(11.017 55.31)" fill="#263238"/>
            <path id="Path_12364" data-name="Path 12364" d="M82.153,436.852c-.089.2-1.113-.083-2.367.025-1.255.082-2.224.522-2.343.333-.132-.159.807-1,2.285-1.1s2.531.57,2.425.747" transform="translate(9.628 54.227)" fill="#263238"/>
            <path id="Path_12365" data-name="Path 12365" d="M62.833,411.47,46.571,428.343s11.688,22.2,8.986,25.607L21.709,423.593l24.261-27.33Z" transform="translate(2.699 49.274)" fill="#307e27"/>
            <path id="Path_12366" data-name="Path 12366" d="M35.966,415.161a1.859,1.859,0,0,0-2.371.72,1.787,1.787,0,0,0,.694,2.357,1.959,1.959,0,0,0,2.506-.776,1.852,1.852,0,0,0-.993-2.371" transform="translate(4.153 51.603)" fill="#e0e0e0"/>
            <path id="Path_12367" data-name="Path 12367" d="M21.709,420.864l2.553-2.659,31.5,30.1s.919,2.008-.2,2.917Z" transform="translate(2.699 52.003)" fill="#263238"/>
            <path id="Path_12368" data-name="Path 12368" d="M44.975,425.247c-.154.161-1.048-.506-2.338-.7-1.284-.232-2.345.108-2.439-.093-.124-.169,1.009-.937,2.566-.669s2.382,1.347,2.21,1.466" transform="translate(4.997 52.689)" fill="#263238"/>
            <path id="Path_12369" data-name="Path 12369" d="M46.925,429.3c-.106.193-1.074-.168-2.262.028-1.194.161-2.014.79-2.171.635-.179-.114.575-1.184,2.056-1.4s2.514.575,2.377.735" transform="translate(5.281 53.286)" fill="#263238"/>
            <path id="Path_12370" data-name="Path 12370" d="M44.84,434.82c-.182-.1.328-1.131,1.565-1.656s2.332-.191,2.279.009c-.029.219-.966.255-1.974.7-1.019.422-1.691,1.077-1.87.946" transform="translate(5.571 53.828)" fill="#263238"/>
            <path id="Path_12371" data-name="Path 12371" d="M47.771,421.631c-.2.089-.758-.82-1.749-1.594-.975-.794-1.983-1.133-1.943-1.352.012-.206,1.271-.181,2.425.748s1.465,2.141,1.267,2.2" transform="translate(5.481 52.05)" fill="#263238"/>
            <path id="Path_12372" data-name="Path 12372" d="M140.222,195.037l-19.988,13.2.3,5.233,5.214,11s2.411,2.287,9.49-4.883,16.035-21.417,16.035-21.417Z" transform="translate(14.951 24.252)" fill="#ffbe9d"/>
            <path id="Path_12373" data-name="Path 12373" d="M172.532,170.83a1.653,1.653,0,0,0-1.3-.967l-9.793-1.313a3.1,3.1,0,0,0-2.382.722l-28.042,24.081,1.269,1.236,10.518,2.533,29.923-25.851Z" transform="translate(16.291 20.956)" fill="#263238"/>
            <path id="Path_12374" data-name="Path 12374" d="M161.035,172.451a.615.615,0,0,0,.837.054.586.586,0,0,0,.287-.77.612.612,0,0,0-.835-.054.586.586,0,0,0-.288.77" transform="translate(20.016 21.331)" fill="#fff"/>
            <path id="Path_12375" data-name="Path 12375" d="M172.521,171.158a12.348,12.348,0,0,1-1.924-.146l-5.215-.611c-1.11-.139-2.312-.29-3.6-.45a2.061,2.061,0,0,0-1.7.441l-1.6,1.386-7.168,6.172c-5.1,4.368-9.732,8.3-13.107,11.119l-4.017,3.32a11.921,11.921,0,0,1-1.526,1.158,12.219,12.219,0,0,1,1.375-1.327l3.894-3.457c3.3-2.9,7.9-6.879,12.993-11.246l7.2-6.138L159.754,170a2.578,2.578,0,0,1,2.087-.528l3.592.521,5.194.793a12.346,12.346,0,0,1,1.893.369" transform="translate(16.497 21.068)" fill="#455a64"/>
            <path id="Path_12376" data-name="Path 12376" d="M162.061,175.444s-.893-.433-2.128,1.993-4.962,9.335-4.962,9.335l-4.19-4-6.384-.925s-1.692.865-.9,1.815S148,186.4,148,186.4l1.714,4.935-7.127-6.285s-2.95-.055-2.616,1.85,4.419,8.714,4.419,8.714l-4.041-1.472-4.074-4.358s-1.526-.354-1.323,1.086,4.007,7.51,4.007,7.51l5.349,4.74s3.454.684,4.057-.218a12.116,12.116,0,0,0,1.083-2.295s1.93.02,2.51-.757a5.614,5.614,0,0,0,.75-2.213s2.678,1.284,3.467-.188a18.551,18.551,0,0,0,1.419-5.934c.055-1.287,4.689-12.1,4.668-12.467s1.78-3.854-.195-3.608" transform="translate(16.778 21.812)" fill="#ffbe9d"/>
            <path id="Path_12377" data-name="Path 12377" d="M148.162,200.542a3.528,3.528,0,0,1-1.756.048,11.343,11.343,0,0,1-7.287-4.048c-.679-.854-.953-1.475-.886-1.517.161-.127,1.646,2.123,4.465,3.659,2.792,1.581,5.486,1.653,5.464,1.857" transform="translate(17.188 24.25)" fill="#eb996e"/>
            <path id="Path_12378" data-name="Path 12378" d="M146.673,198.1c-.136.116-1.073-.767-1.973-2.058s-1.412-2.47-1.257-2.559.911.92,1.8,2.181,1.575,2.316,1.434,2.435" transform="translate(17.833 24.059)" fill="#eb996e"/>
            <path id="Path_12379" data-name="Path 12379" d="M150.865,194.17c-.134.117-1.066-.75-1.878-2.074s-1.17-2.546-1.006-2.612.779.993,1.567,2.267,1.459,2.3,1.317,2.42" transform="translate(18.396 23.561)" fill="#eb996e"/>
            <path id="Path_12380" data-name="Path 12380" d="M154.919,191.307c-.189.025-.485-1.312-1.112-2.854s-1.324-2.715-1.17-2.829c.134-.111,1.13.945,1.782,2.584s.673,3.086.5,3.1" transform="translate(18.977 23.081)" fill="#eb996e"/>
            <path id="Path_12381" data-name="Path 12381" d="M114.283,182.359c-7.595-.263-23.581-22.291-23.482-29.89l.593-45.727c-.232-12.289,6.727-22.668,19.018-22.559l1.136.075a21.974,21.974,0,0,1,20.5,21.628c.143,10.653.162,22.426-.29,28.105-.937,11.758-12.83,12.8-12.83,12.8-.026,0-.1,2.732-.187,6.193-.187,7.773,2.85,29.6-4.921,29.334Z" transform="translate(11.291 10.468)" fill="#ffbe9d"/>
            <path id="Path_12382" data-name="Path 12382" d="M117.478,140.479a28.484,28.484,0,0,1-15.017-5.56s3.091,9.095,14.9,8.825Z" transform="translate(12.741 16.777)" fill="#eb996e"/>
            <path id="Path_12383" data-name="Path 12383" d="M124.318,112.248a1.685,1.685,0,0,1-1.735,1.586,1.609,1.609,0,0,1-1.629-1.631,1.684,1.684,0,0,1,1.733-1.588,1.612,1.612,0,0,1,1.631,1.633" transform="translate(15.04 13.755)" fill="#263238"/>
            <path id="Path_12384" data-name="Path 12384" d="M125.684,108.18c-.223.2-1.432-.823-3.241-.94-1.8-.143-3.2.7-3.376.464-.089-.1.15-.487.756-.868a4.622,4.622,0,0,1,2.721-.643,4.447,4.447,0,0,1,2.561,1.022c.527.464.689.874.58.965" transform="translate(14.803 13.203)" fill="#263238"/>
            <path id="Path_12385" data-name="Path 12385" d="M109.6,111.922a1.685,1.685,0,0,1-1.735,1.586,1.611,1.611,0,0,1-1.63-1.631,1.686,1.686,0,0,1,1.734-1.588,1.612,1.612,0,0,1,1.631,1.633" transform="translate(13.21 13.714)" fill="#263238"/>
            <path id="Path_12386" data-name="Path 12386" d="M109.893,107.492c-.224.2-1.435-.822-3.243-.939-1.8-.143-3.194.7-3.375.463-.09-.1.146-.486.756-.867a4.619,4.619,0,0,1,2.72-.643,4.448,4.448,0,0,1,2.562,1.021c.526.464.689.874.58.965" transform="translate(12.84 13.118)" fill="#263238"/>
            <path id="Path_12387" data-name="Path 12387" d="M114.1,121.691a11.946,11.946,0,0,1,2.973-.333c.465-.016.907-.079,1.006-.389a2.356,2.356,0,0,0-.215-1.389l-1.131-3.608c-1.559-5.135-2.656-9.343-2.449-9.4s1.64,4.05,3.2,9.185q.56,1.9,1.071,3.625a2.679,2.679,0,0,1,.117,1.828,1.158,1.158,0,0,1-.8.624,3.1,3.1,0,0,1-.793.056,11.79,11.79,0,0,1-2.976-.2" transform="translate(14.188 13.251)" fill="#263238"/>
            <path id="Path_12388" data-name="Path 12388" d="M110.334,101.495c-.277.445-2-.159-4.132-.347-2.13-.233-3.936.021-4.121-.469-.08-.234.309-.625,1.086-.949a7.211,7.211,0,0,1,6.287.623c.7.469,1,.93.879,1.142" transform="translate(12.692 12.345)" fill="#263238"/>
            <path id="Path_12389" data-name="Path 12389" d="M125.627,104.4c-.4.391-1.85-.112-3.62-.225-1.767-.165-3.288.1-3.61-.343-.141-.217.117-.616.794-.971a5.71,5.71,0,0,1,2.98-.519,5.621,5.621,0,0,1,2.846.977c.6.455.788.889.612,1.082" transform="translate(14.718 12.724)" fill="#263238"/>
            <path id="Path_12390" data-name="Path 12390" d="M92.571,112.117c-.195-.1-7.924-2.936-8.209,5.127s7.869,6.684,7.891,6.454.318-11.581.318-11.581" transform="translate(10.489 13.871)" fill="#ffbe9d"/>
            <path id="Path_12391" data-name="Path 12391" d="M89.671,120.272c-.035-.027-.144.093-.386.193a1.4,1.4,0,0,1-1.05-.015c-.841-.343-1.51-1.72-1.5-3.175a4.633,4.633,0,0,1,.463-2,1.627,1.627,0,0,1,1.1-1.041.717.717,0,0,1,.815.415c.1.228.043.388.085.4.021.02.178-.129.125-.464a.9.9,0,0,0-.3-.517,1.06,1.06,0,0,0-.77-.232,1.974,1.974,0,0,0-1.511,1.2,4.779,4.779,0,0,0-.567,2.231c-.006,1.626.772,3.176,1.927,3.554a1.506,1.506,0,0,0,1.292-.169c.256-.19.306-.369.278-.385" transform="translate(10.716 14.156)" fill="#eb996e"/>
            <path id="Path_12392" data-name="Path 12392" d="M109.661,120.769c-.11.013-.187.451-.049,1.151a4.5,4.5,0,0,0,1.394,2.406,7.457,7.457,0,0,0,2.317,1.423c.639.25,1.059.331,1.111.228s-.279-.381-.829-.759a16.658,16.658,0,0,1-2.019-1.513c-1.438-1.277-1.663-2.987-1.925-2.937" transform="translate(13.621 15.017)" fill="#263238"/>
            <path id="Path_12393" data-name="Path 12393" d="M58.168,245.61l-5.219,32.45,3.81,26.815.162,5.827,3.86,28.608s-1.435,26.961-2.146,32.813,1.817,88.251,1.817,88.251l26.219-1.154s9.914-122.255,9.876-123.6,13.634-91.461,13.634-91.461Z" transform="translate(6.584 30.361)" fill="#263238"/>
            <path id="Path_12394" data-name="Path 12394" d="M127.171,250.55s-.526,109.812-2.974,116.161S52.86,441.323,52.86,441.323l-21.809-17,55.7-74.961,3.424-104.636Z" transform="translate(3.861 30.431)" fill="#263238"/>
            <path id="Path_12395" data-name="Path 12395" d="M101.947,275.44c.148.018-3.11,27.748-7.277,61.927S87,399.253,86.855,399.235s3.109-27.742,7.278-61.934,7.666-61.88,7.814-61.862" transform="translate(10.8 34.25)" fill="#455a64"/>
            <path id="Path_12396" data-name="Path 12396" d="M60.184,328.787a1.076,1.076,0,0,1,0,.272c-.012.21-.026.471-.044.794-.052.739-.124,1.756-.216,3.045-.218,2.642-.463,6.471-.751,11.2-.533,9.462-.976,22.553-.859,37.016.084,14.466.54,27.559.786,37.037.109,4.708.2,8.532.262,11.227.015,1.293.026,2.313.035,3.054,0,.323,0,.584,0,.794a1.045,1.045,0,0,1-.02.271.969.969,0,0,1-.036-.269c-.012-.21-.028-.471-.048-.794-.034-.74-.079-1.758-.137-3.049-.1-2.694-.252-6.517-.434-11.221-.343-9.475-.859-22.569-.943-37.047-.118-14.473.387-27.578,1.018-37.042.336-4.731.64-8.557.923-11.2.135-1.285.241-2.3.318-3.037.039-.32.071-.58.1-.789a1.02,1.02,0,0,1,.052-.266" transform="translate(7.182 40.884)" fill="#455a64"/>
            <path id="Path_12397" data-name="Path 12397" d="M85.878,273.376c.066.134-4.707,2.649-10.661,5.617s-10.836,5.266-10.9,5.133,4.705-2.648,10.661-5.617,10.836-5.266,10.9-5.133" transform="translate(7.997 33.993)" fill="#455a64"/>
            <path id="Path_12398" data-name="Path 12398" d="M132.251,197.817l13.165,11.838s-20.608,22.509-26.975,27.488,2.037-33.97,2.037-33.97Z" transform="translate(14.431 24.598)" fill="#307e27"/>
            <path id="Path_12399" data-name="Path 12399" d="M95.4,135.206,89.929,142.8,68.62,150.676l-9.665,72.459-6.1,64.7s8.528-12.165,15.057-12.337,39.569,9.064,41.8,10.752L114.08,271.6l3.535,16.961s6.2,1.4,9.445-7.878l-1.375-32.153s4.365-57.967,4.121-66.709-6.159-33.018-6.159-33.018l-2.2,7.158L102.255,139.6Z" transform="translate(6.573 16.813)" fill="#307e27"/>
            <path id="Path_12400" data-name="Path 12400" d="M75.354,147s-14-.047-18.525,25.887-11.039,53.757-7.687,64.162,16.505,40.378,16.505,40.378l18.036-6.5-7.4-47.072,8.563-46.068S85.9,148.892,75.354,147" transform="translate(5.996 18.279)" fill="#307e27"/>
            <path id="Path_12401" data-name="Path 12401" d="M89.295,267.561s-8.593-10.11-9.248-9.866l-14.284,5.148a59.086,59.086,0,0,0,.1,11.029c.555,5.278,1.465,10.929,1.465,10.929L86.11,274.782a33.6,33.6,0,0,0,1.837,6.1c1.045,2.185,4.669-.129,4.669-.129Z" transform="translate(8.152 32.043)" fill="#ffbe9d"/>
            <path id="Path_12402" data-name="Path 12402" d="M84.875,177.787s-.031.282-.123.826q-.145.843-.417,2.408c-.382,2.132-.941,5.239-1.656,9.222-1.466,8.006-3.575,19.523-6.161,33.649v-.071c2.122,13.4,4.664,29.464,7.45,47.064L84,271.1l-.2.073L65.765,277.68l-.238.085-.1-.23L59.7,264.242c-3.445-8.153-6.794-16.12-9.684-23.961-.368-.977-.691-1.969-1.028-2.949-.159-.495-.255-1.016-.385-1.521a8.8,8.8,0,0,1-.286-1.531,26.066,26.066,0,0,1-.268-3.07c-.046-1.02-.078-2.034-.03-3.04a105.7,105.7,0,0,1,.994-11.755c.991-7.614,2.338-14.78,3.565-21.486,1.25-6.7,2.416-12.943,3.48-18.645.485-2.854,1.054-5.566,1.62-8.121l1.058-3.666c.4-1.166.849-2.277,1.249-3.361a28.03,28.03,0,0,1,6.466-9.847,16.594,16.594,0,0,1,6.366-3.843,10.957,10.957,0,0,1,1.9-.415l.5-.037a1.317,1.317,0,0,1,.166.008s-.223.022-.654.084a12.1,12.1,0,0,0-1.877.463,16.805,16.805,0,0,0-6.254,3.893,28,28,0,0,0-6.331,9.811c-.391,1.078-.829,2.183-1.221,3.344q-.5,1.769-1.032,3.65c-.551,2.546-1.1,5.242-1.577,8.105-1.045,5.7-2.188,11.953-3.415,18.659-1.209,6.708-2.538,13.873-3.512,21.469a105.762,105.762,0,0,0-.973,11.7c-.045,1-.012,2,.035,3.008a25.682,25.682,0,0,0,.265,3.017,8.468,8.468,0,0,0,.28,1.49c.127.49.217.987.374,1.476.335.974.655,1.957,1.023,2.932,2.888,7.815,6.241,15.781,9.684,23.929l5.724,13.288-.337-.144c6.205-2.234,12.267-4.416,18.039-6.493l-.17.286c-2.747-17.606-5.254-33.671-7.346-47.08l-.006-.036.007-.035C78.769,209.7,80.939,198.2,82.448,190.2c.762-3.973,1.358-7.074,1.767-9.2q.309-1.558.476-2.4c.111-.541.183-.815.183-.815" transform="translate(5.968 18.278)" fill="#263238"/>
            <path id="Path_12403" data-name="Path 12403" d="M117.056,154.931a5.064,5.064,0,0,1-.418.961q-.509,1.024-1.308,2.622c-1.2,2.311-2.815,5.446-4.71,9.109l-.183.354-.238-.325c-1.675-2.3-3.6-4.786-5.714-7.323a145.747,145.747,0,0,0-11.336-12.135c-1.534-1.474-2.805-2.634-3.681-3.441a12.078,12.078,0,0,1-1.335-1.285,12.047,12.047,0,0,1,1.473,1.125c.919.76,2.233,1.879,3.8,3.32a123.112,123.112,0,0,1,11.49,12.068c2.123,2.548,4.042,5.055,5.7,7.379l-.422.029c1.964-3.626,3.644-6.73,4.883-9.017l1.432-2.556a5.167,5.167,0,0,1,.56-.887" transform="translate(10.959 17.84)" fill="#263238"/>
            <path id="Path_12404" data-name="Path 12404" d="M118.463,157.311c.182-.065,1.086,3.227.441,7.614l-.112.771-.382-.707c-.2-.377-.4-.776-.595-1.188-1.016-2.284-1.563-4.45-2.124-5.95-.537-1.51-.984-2.4-.911-2.44a7.909,7.909,0,0,1,1.267,2.3c.66,1.486,1.271,3.646,2.26,5.865.186.4.38.79.572,1.157l-.495.063a24.225,24.225,0,0,0,.251-5.317c-.045-1.357-.226-2.145-.172-2.168" transform="translate(14.272 19.325)" fill="#263238"/>
            <path id="Path_12405" data-name="Path 12405" d="M115.6,156.988a1.2,1.2,0,0,1,.024.29c0,.223.008.5.014.851.01.748.006,1.851-.015,3.271-.039,2.84-.163,6.951-.441,12.023-.536,10.147-1.774,24.124-3.042,39.564-1.32,15.425-2.514,29.386-3.383,39.539-.456,5.026-.826,9.107-1.087,11.977-.137,1.382-.245,2.47-.323,3.254-.039.346-.072.624-.1.845a1.121,1.121,0,0,1-.052.287,1.2,1.2,0,0,1,0-.291c.012-.223.026-.5.045-.85.053-.786.127-1.877.221-3.262.219-2.873.531-6.959.915-11.991.828-10.156,1.966-24.122,3.225-39.552s2.567-29.411,3.2-39.541c.326-5.065.507-9.169.612-12.006.049-1.387.088-2.48.116-3.267.017-.347.029-.627.04-.85a1.161,1.161,0,0,1,.031-.289" transform="translate(13.329 19.521)" fill="#263238"/>
            <path id="Path_12406" data-name="Path 12406" d="M121.854,179.4c.148.011-.658,14.339-1.8,32s-2.19,31.972-2.34,31.96.658-14.335,1.8-32,2.189-31.967,2.34-31.956" transform="translate(14.635 22.307)" fill="#263238"/>
            <path id="Path_12407" data-name="Path 12407" d="M85.482,165.7c-.1.006-.1-1.293-.612-3.284a16.111,16.111,0,0,0-10.379-11.3c-1.941-.682-3.235-.79-3.22-.888a2.664,2.664,0,0,1,.911.018,13.253,13.253,0,0,1,2.43.506,15.429,15.429,0,0,1,10.631,11.575,13.193,13.193,0,0,1,.3,2.463,2.663,2.663,0,0,1-.06.91" transform="translate(8.862 18.677)" fill="#263238"/>
            <g id="Group_308" data-name="Group 308" transform="translate(133.061 227.771)" opacity="0.3">
              <g id="Group_307" data-name="Group 307">
                <g id="Group_306" data-name="Group 306" clip-path="url(#clip-path-7)">
                  <path id="Path_12408" data-name="Path 12408" d="M118.373,236.11a58.69,58.69,0,0,0,1.98-33.529c-.709,11.263-1.3,22.527-2.008,33.789" transform="translate(-118.345 -202.581)"/>
                </g>
              </g>
            </g>
            <g id="Group_311" data-name="Group 311" transform="translate(82.199 200.078)" opacity="0.3">
              <g id="Group_310" data-name="Group 310">
                <g id="Group_309" data-name="Group 309" clip-path="url(#clip-path-8)">
                  <path id="Path_12409" data-name="Path 12409" d="M81.007,177.95c-4.621,24-8.373,46.773-7.85,43.624l7.432,45.5,4.387,6.5C81.156,243.039,78,208.364,81.007,177.95" transform="translate(-73.108 -177.95)"/>
                </g>
              </g>
            </g>
            <path id="Path_12410" data-name="Path 12410" d="M141.37,93.078a4.675,4.675,0,0,0-2.389-3.761,7.249,7.249,0,0,0-.051-1.346,5.992,5.992,0,0,0-5.522-5.127,5.826,5.826,0,0,0-9.7-3.483,6.959,6.959,0,0,0-7.384-1.526,1.762,1.762,0,0,0-.816.56.813.813,0,0,0-.124.627,4.382,4.382,0,0,0-3.349-2.291,4.184,4.184,0,0,0-1.428.109,4.938,4.938,0,0,0-3.424,1.457,7.024,7.024,0,0,0-8.771,3.166,6.681,6.681,0,0,0-6.183,4.166A4.88,4.88,0,0,0,88.095,93s-5.741.889-4.627,6.036c.569,2.629,4.062,2.423,4.062,2.423l3.193,16.607c-.075.075.881,2.059,1.883,1.717a5.26,5.26,0,0,0,2.249-2.162,11.553,11.553,0,0,0,1.915-3.072,2.808,2.808,0,0,0-.887-3.25,4.212,4.212,0,0,0,2.79-3.148,12.426,12.426,0,0,0,.054-4.389q-.347-3.24-.694-6.48a8.086,8.086,0,0,0,7.285-4.087,4.627,4.627,0,0,0,6.815-1.174,6.031,6.031,0,0,0,7.054,4.23c-.436,1.647,2.453,3.409,4.066,3.964A5.952,5.952,0,0,0,127,99.75a9.559,9.559,0,0,0,3.182,1.4c.058.01.117.019.174.026,2.264.381,4.635-1.532,5.879-3.458a4.29,4.29,0,0,0,1.754-.064,4.663,4.663,0,0,0,3.375-4.576" transform="translate(10.361 9.539)" fill="#263238"/>
            <path id="Path_12411" data-name="Path 12411" d="M79.623,199.542c-.043.083-1.513-.609-3.937-1.6A83.7,83.7,0,0,0,56.014,192.5c-2.59-.391-4.208-.554-4.2-.646a4.3,4.3,0,0,1,1.147-.015c.735.024,1.8.106,3.108.251a66.215,66.215,0,0,1,19.782,5.472c1.2.549,2.152,1.023,2.8,1.382a4.363,4.363,0,0,1,.977.6" transform="translate(6.443 23.852)" fill="#fff"/>
            <path id="Path_12412" data-name="Path 12412" d="M68.872,274.752a1.4,1.4,0,0,1-.143-.292l-.364-.882c-.324-.819-.774-1.959-1.345-3.408-1.146-2.967-2.8-7.266-4.62-12.66A141.021,141.021,0,0,1,57.218,238.2a89.26,89.26,0,0,1-1.432-11.738,82.62,82.62,0,0,1,.346-12.693,185.748,185.748,0,0,1,4.493-24.073c1.742-7.32,3.454-13.877,4.97-19.36s2.823-9.9,3.758-12.939c.469-1.486.838-2.655,1.1-3.494.124-.371.224-.668.3-.9a1.324,1.324,0,0,1,.123-.3,1.3,1.3,0,0,1-.065.319c-.064.24-.145.542-.247.92-.238.847-.572,2.026-1,3.525-.867,3.059-2.114,7.489-3.578,12.983S62.861,182.5,61.15,189.817a191.024,191.024,0,0,0-4.436,24.008,82.965,82.965,0,0,0-.356,12.605A90.355,90.355,0,0,0,57.748,238.1a145.792,145.792,0,0,0,5.045,19.279c1.766,5.4,3.361,9.719,4.44,12.711.527,1.465.943,2.619,1.241,3.446l.31.9a1.391,1.391,0,0,1,.087.314" transform="translate(6.924 18.987)" fill="#fff"/>
            <path id="Path_12413" data-name="Path 12413" d="M77.66,231.176a3.276,3.276,0,0,1-.894.454c-.588.259-1.456.6-2.539.98a64.154,64.154,0,0,1-17.578,3.482c-1.148.058-2.079.078-2.721.061a3.4,3.4,0,0,1-1-.078,32.382,32.382,0,0,1,3.689-.4c2.276-.218,5.409-.611,8.83-1.284s6.464-1.512,8.651-2.177a32.88,32.88,0,0,1,3.562-1.042" transform="translate(6.582 28.745)" fill="#fff"/>
            <path id="Path_12414" data-name="Path 12414" d="M86.282,169.143c-.1.066-1-1.349-2.864-3.28a28.433,28.433,0,0,0-3.537-3.086,28.633,28.633,0,0,0-10.367-4.8,28.622,28.622,0,0,0-4.642-.7c-2.676-.17-4.341.055-4.353-.061a4.653,4.653,0,0,1,1.16-.215,10.376,10.376,0,0,1,1.378-.118,17.064,17.064,0,0,1,1.834-.019,25.511,25.511,0,0,1,4.744.587A27.046,27.046,0,0,1,80.2,162.345a25.526,25.526,0,0,1,3.517,3.236,17.077,17.077,0,0,1,1.173,1.411,10.289,10.289,0,0,1,.8,1.128,4.529,4.529,0,0,1,.587,1.023" transform="translate(7.525 19.503)" fill="#fff"/>
            <path id="Path_12415" data-name="Path 12415" d="M93.509,279.7a1.635,1.635,0,0,1-.022-.363c0-.271,0-.622-.008-1.063.006-.974.015-2.343.026-4.088.049-3.589.12-8.715.207-15.033.23-12.725.55-30.242.9-49.59.174-9.686.309-18.912,0-27.291-.144-4.189-.413-8.165-.775-11.873a61.74,61.74,0,0,0-1.678-10.2,27.21,27.21,0,0,0-3.342-7.786,20.072,20.072,0,0,0-4.247-4.782,16.459,16.459,0,0,0-3.442-2.141c-.844-.391-1.317-.535-1.305-.567a8.438,8.438,0,0,1,1.353.459,15.447,15.447,0,0,1,3.536,2.07,19.907,19.907,0,0,1,4.378,4.781,27.2,27.2,0,0,1,3.467,7.856,61.258,61.258,0,0,1,1.762,10.256c.383,3.718.671,7.7.831,11.9.337,8.4.219,17.635.044,27.319-.418,19.348-.8,36.864-1.073,49.589-.165,6.317-.3,11.441-.392,15.029-.058,1.744-.1,3.113-.136,4.086-.021.442-.038.792-.051,1.063a1.685,1.685,0,0,1-.037.362" transform="translate(9.926 18.022)" fill="#fff"/>
            <path id="Path_12416" data-name="Path 12416" d="M112.066,244.3a6.711,6.711,0,0,1-1.422-.142c-.908-.128-2.219-.338-3.837-.614-3.234-.552-7.691-1.382-12.594-2.394s-9.325-2.019-12.514-2.794c-1.594-.388-2.881-.715-3.767-.958a6.751,6.751,0,0,1-1.362-.433,6.72,6.72,0,0,1,1.413.211l3.806.775,12.541,2.625,12.552,2.56,3.8.8a6.8,6.8,0,0,1,1.381.367" transform="translate(9.521 29.465)" fill="#fff"/>
            <path id="Path_12417" data-name="Path 12417" d="M115.3,207.961c-.012.161-9.039-.383-20.16-1.215s-20.129-1.639-20.117-1.8,9.036.383,20.161,1.215,20.128,1.639,20.116,1.8" transform="translate(9.329 25.481)" fill="#fff"/>
            <path id="Path_12418" data-name="Path 12418" d="M117.574,176.088a6.99,6.99,0,0,1-1.45.183c-.935.082-2.291.17-3.969.254-3.354.172-7.993.3-13.118.275s-9.764-.22-13.116-.432c-1.676-.1-3.03-.209-3.966-.3a6.988,6.988,0,0,1-1.448-.2,7.131,7.131,0,0,1,1.462-.026l3.971.115c3.353.106,7.983.228,13.1.26s9.747-.038,13.1-.1l3.973-.067a7,7,0,0,1,1.461.044" transform="translate(10.011 21.864)" fill="#fff"/>
            <path id="Path_12419" data-name="Path 12419" d="M94.15,146.591a16.675,16.675,0,0,1-2.686.625,61.987,61.987,0,0,0-12.577,4.05,16.6,16.6,0,0,1-2.547,1.06,10.643,10.643,0,0,1,2.369-1.434,42.32,42.32,0,0,1,12.68-4.085,10.6,10.6,0,0,1,2.76-.217" transform="translate(9.493 18.224)" fill="#fff"/>
            <path id="Path_12420" data-name="Path 12420" d="M115.077,160.413a6.132,6.132,0,0,1-1.038-.886l-2.7-2.544c-2.272-2.15-5.435-5.093-9.015-8.248s-6.9-5.919-9.324-7.9l-2.864-2.353a6.146,6.146,0,0,1-1.01-.916,6.094,6.094,0,0,1,1.149.736c.717.5,1.737,1.256,2.982,2.208,2.49,1.9,5.861,4.626,9.453,7.787s6.716,6.161,8.918,8.391c1.1,1.114,1.979,2.031,2.568,2.679a6.116,6.116,0,0,1,.876,1.047" transform="translate(11.083 17.105)" fill="#fff"/>
            <path id="Path_12421" data-name="Path 12421" d="M106.456,147.091a25.086,25.086,0,0,1-3.421,4.183,25.1,25.1,0,0,1-3.854,3.788,25.138,25.138,0,0,1,3.421-4.183,25.1,25.1,0,0,1,3.854-3.788" transform="translate(12.332 18.29)" fill="#fff"/>
            <path id="Path_12422" data-name="Path 12422" d="M122.29,176.719a24.637,24.637,0,0,1-4.138-.124,24.474,24.474,0,0,1-4.133-.241,10.8,10.8,0,0,1,4.159-.344,10.774,10.774,0,0,1,4.112.708" transform="translate(14.178 21.884)" fill="#fff"/>
            <path id="Path_12423" data-name="Path 12423" d="M119.943,210.046a15.334,15.334,0,0,1-4.208.194,15.364,15.364,0,0,1-4.2-.391,15.352,15.352,0,0,1,4.21-.195,15.36,15.36,0,0,1,4.195.391" transform="translate(13.869 26.068)" fill="#fff"/>
            <path id="Path_12424" data-name="Path 12424" d="M118.971,164.559a1.183,1.183,0,0,1,.029.307c.008.236.017.532.028.9.012.835.029,1.993.049,3.462.029,1.5.009,3.344-.024,5.479s-.065,4.567-.162,7.254c-.3,10.75-1.218,25.578-2.375,41.937s-2.151,31.179-2.566,41.917c-.121,2.684-.2,5.111-.252,7.245s-.12,3.97-.126,5.472c-.025,1.468-.045,2.624-.058,3.46-.012.368-.022.664-.03.9a1.217,1.217,0,0,1-.03.307,1.2,1.2,0,0,1-.03-.307c-.007-.236-.016-.532-.027-.9-.012-.835-.029-1.993-.051-3.462-.03-1.5-.006-3.343.026-5.478.016-2.136.071-4.567.165-7.254.309-10.75,1.24-25.578,2.395-41.943s2.137-31.173,2.547-41.91c.121-2.684.2-5.112.247-7.246s.117-3.97.124-5.473c.025-1.467.045-2.624.06-3.46.012-.368.022-.664.03-.9a1.215,1.215,0,0,1,.03-.307" transform="translate(14.093 20.463)" fill="#fff"/>
            <path id="Path_12425" data-name="Path 12425" d="M119.034,243.351a25.582,25.582,0,0,1-5.3,1.272,25.642,25.642,0,0,1-5.408.7,25.5,25.5,0,0,1,5.3-1.272,25.632,25.632,0,0,1,5.408-.7" transform="translate(13.47 30.255)" fill="#fff"/>
            <path id="Path_12426" data-name="Path 12426" d="M138.865,203.857a24.919,24.919,0,0,1-2.95,1.926c-1.843,1.148-4.369,2.76-7.09,4.646s-5.116,3.69-6.837,5.015a24.861,24.861,0,0,1-2.837,2.088,18.223,18.223,0,0,1,2.577-2.411c1.66-1.411,4.03-3.275,6.763-5.173s5.31-3.461,7.214-4.521a18.254,18.254,0,0,1,3.161-1.57" transform="translate(14.816 25.348)" fill="#fff"/>
            <path id="Path_12427" data-name="Path 12427" d="M134.689,219.2a17.684,17.684,0,0,1-1.562-2.577c-.916-1.615-2.2-3.833-3.7-6.233s-2.929-4.525-3.977-6.059a17.56,17.56,0,0,1-1.629-2.534,13.832,13.832,0,0,1,1.965,2.291c1.137,1.476,2.63,3.579,4.138,5.993s2.739,4.677,3.566,6.347a13.723,13.723,0,0,1,1.2,2.773" transform="translate(15.397 25.093)" fill="#fff"/>
          </g>
        </g>
        <g id="Group_315" data-name="Group 315">
          <g id="Group_314" data-name="Group 314" clip-path="url(#clip-path)">
            <path id="Path_12428" data-name="Path 12428" d="M479.155,453.185c0,.162-106.993.292-238.944.292-132,0-238.967-.13-238.967-.292s106.969-.292,238.967-.292c131.951,0,238.944.13,238.944.292" transform="translate(0.155 56.316)" fill="#263238"/>
          </g>
        </g>
      </g>
    </g>
  </g>
</svg>
