<svg xmlns="http://www.w3.org/2000/svg" width="371.719" height="76.431" viewBox="0 0 371.719 76.431">
  <g id="Layer_2" data-name="Layer 2" transform="translate(0.02 -136.807)">
    <g id="Layer_1" data-name="Layer 1" transform="translate(-0.02)">
      <path id="Path_12429" data-name="Path 12429" d="M231.294,148.352a8.668,8.668,0,0,0,3.106-2.065,8.15,8.15,0,0,0,2.441-5.985l-.02-21.612h-8.173l.02,22H214.642L197.3,140.7l-.023-22H189.1l.02,21.632a8.572,8.572,0,0,0,8.515,8.5l24.093-.023,5.576,6.839h9.622Z" transform="translate(134.793 57.581)" fill="#31864b" fill-rule="evenodd"/>
      <path id="Path_12430" data-name="Path 12430" d="M189,8.05h.023v-.4a4.014,4.014,0,0,1,.066-.6h.023V6.893c.02-.13.047-.263.073-.389h.017V6.42c.02-.093.043-.186.066-.279h.023v-.09l.053-.183h.037V5.752l.08-.233h0V5.48c.027-.08.057-.156.086-.233h0a6.04,6.04,0,0,1,.332-.715h.043v-.08l.053-.1h.037v-.07l.063-.113h.027V4.126l.083-.136h0c.113-.18.229-.356.356-.529h0l.06-.08h.06V3.305l.183-.229.073-.09h0v-.02l.06-.07h.03V2.859l.05-.057h.04V2.76c.11-.123.226-.246.332-.366.173-.173.352-.332.532-.5h.027v-.02l.083-.07h0a8.483,8.483,0,0,1,.918-.632h.04V1.154l.263-.16h0c.17-.093.332-.183.519-.266h.023l.153-.1h0c.146-.063.289-.123.439-.176h0c.176-.066.356-.126.539-.176h0L195.3.186h.023c.163-.04.332-.073.489-.1l.246-.04,1.33,1.33L212.8,16.764l8.781-8.711L229.6,0h.15c.146.023.293.047.436.076h.07c.1.02.2.043.293.07V.18h.086c.186.05.366.1.545.166V.362h.043l.226.083h.017l.163.066V.535h.06a7.431,7.431,0,0,1,.865.432V1h.047l.136.083h0l.256.17h.017a8.313,8.313,0,0,1,.8.622h0l.076.073v.05h.023l.066.063v.027h.03c.106.1.209.2.313.309s.136.143.2.216h0l.076.086h0l.266.332v.043h.033l.057.07v.02h0c.09.116.176.233.256.352h0l.176.263h0l.086.136V3.99h.076l.063.11v.07h.04c.05.086.1.173.143.263h0l.086.17h0c.07.146.136.289.2.439a1.616,1.616,0,0,1,.07.176v.02h0c.027.073.056.15.083.226v.047h0c.027.073.053.153.076.229v.13h.04l.05.186v.086h.023c.063.249.116.505.156.765v.229h.033c.027.186.047.372.06.562V8.03h0v.349l.023,27.823-8.126.04V12.595L212.876,28.3,207.1,22.54l-9.922-9.905.023,23.607H189.03L189,8.445Z" transform="translate(134.86 136.807)" fill="#d8e989" fill-rule="evenodd"/>
      <path id="Path_12431" data-name="Path 12431" d="M7.083,258.314a.237.237,0,0,1-.267-.267v-2.289a.237.237,0,0,1,.267-.267H9.335a.237.237,0,0,1,.273.267v2.313a.237.237,0,0,1-.273.267Zm3.491,0a.237.237,0,0,1-.267-.267v-2.289a.237.237,0,0,1,.267-.267h2.252a.237.237,0,0,1,.273.267v2.313a.237.237,0,0,1-.273.267ZM30.12,267.9h2.792a1.348,1.348,0,0,0,.983-.31,1.59,1.59,0,0,0,.3-1.111V252.565a.237.237,0,0,1,.273-.267h2.495a.237.237,0,0,1,.267.267v14.612a3.818,3.818,0,0,1-.722,2.544,3.1,3.1,0,0,1-2.428.82H22.307a.237.237,0,0,1-.267-.267v-2.125a.237.237,0,0,1,.267-.267h4.777V256.365a.237.237,0,0,1,.267-.267h2.5a.237.237,0,0,1,.267.267Zm27.014-6.283a9.848,9.848,0,0,0-2.956.455,19.878,19.878,0,0,0-2.586.971v4.249a5.064,5.064,0,0,1-.079.565H57.34c.771,0,1.39,0,1.864-.036a2.307,2.307,0,0,0,1.1-.3,1.293,1.293,0,0,0,.522-.807,6.75,6.75,0,0,0,.134-1.542,6.071,6.071,0,0,0-.176-1.53,2.5,2.5,0,0,0-.607-1.129,2.9,2.9,0,0,0-1.172-.7,5.845,5.845,0,0,0-1.876-.2ZM66.8,267.9h1.712a1.348,1.348,0,0,0,.983-.31,1.56,1.56,0,0,0,.31-1.111v-6.793a.237.237,0,0,1,.267-.273h2.495a.243.243,0,0,1,.273.273v7.491a3.788,3.788,0,0,1-.728,2.562,3.078,3.078,0,0,1-2.428.819H66.713a5.626,5.626,0,0,1-1.979-.334,2.349,2.349,0,0,1-1.305-1.36,2.622,2.622,0,0,1-1.651,1.384,10.728,10.728,0,0,1-2.859.31H52.757a6.911,6.911,0,0,1-.886-.067c-.279-.036-.558-.079-.82-.134a2.022,2.022,0,0,1-.656-.243,2.362,2.362,0,0,1-.953.376,8.1,8.1,0,0,1-1.214.079H43.87a3.078,3.078,0,0,1-2.428-.82,3.788,3.788,0,0,1-.728-2.562V252.565a.237.237,0,0,1,.267-.267h2.5a.237.237,0,0,1,.267.267v13.913a1.56,1.56,0,0,0,.31,1.111,1.341,1.341,0,0,0,.977.31h2.179a1.062,1.062,0,0,0,1.166-.819,3.74,3.74,0,0,0,.152-.9v-6.6a.237.237,0,0,1,.267-.267h2.495c.182,0,.273.085.273.267v.856a17.262,17.262,0,0,1,2.792-1.056,11.255,11.255,0,0,1,3.169-.443,8.766,8.766,0,0,1,2.993.455,5.27,5.27,0,0,1,2.04,1.287,5.032,5.032,0,0,1,1.153,2.028,9.057,9.057,0,0,1,.364,2.647v.886a1.493,1.493,0,0,0,.607,1.214,2.671,2.671,0,0,0,1.615.431h.486Zm1.633-11.17a.237.237,0,0,1-.267-.267v-2.313a.237.237,0,0,1,.267-.267h2.258a.237.237,0,0,1,.267.267v2.313a.237.237,0,0,1-.267.267Zm3.491,0a.237.237,0,0,1-.267-.267v-2.313a.237.237,0,0,1,.267-.267h2.258a.237.237,0,0,1,.267.267v2.313a.237.237,0,0,1-.267.267Zm8.408,19.923a2.641,2.641,0,0,1-.31-.7,3.035,3.035,0,0,1-.121-.856,3.121,3.121,0,0,1,.146-.929,2.428,2.428,0,0,1,.5-.862,2.592,2.592,0,0,1,.886-.607,3.15,3.15,0,0,1,1.317-.243,3.266,3.266,0,0,1,1.342.267,2.428,2.428,0,0,1,.941.722q.109.164,0,.273l-.7.643q-.109.109-.164.109a.134.134,0,0,1-.1-.055,1.712,1.712,0,0,0-1.293-.607,1.214,1.214,0,0,0-.965.389,1.39,1.39,0,0,0-.352.953,1.548,1.548,0,0,0,.285.929,2.75,2.75,0,0,0,.607.607h2.713c.109,0,.158.061.158.188v.965c0,.127-.049.188-.158.188H79.37c-.109,0-.158-.061-.158-.188v-.965c0-.128.049-.188.158-.188Zm13.24-8.754h1.287a1.329,1.329,0,0,0,.977-.31,1.56,1.56,0,0,0,.31-1.111V252.565a.237.237,0,0,1,.267-.267h2.525a.237.237,0,0,1,.267.267v14.612a3.818,3.818,0,0,1-.722,2.562,3.1,3.1,0,0,1-2.428.819H93.532a5.858,5.858,0,0,1-1.754-.243,2.2,2.2,0,0,1-1.25-1.1,2.07,2.07,0,0,1-1.111,1.044,5.355,5.355,0,0,1-1.973.3H75.958a.237.237,0,0,1-.273-.267v-2.125a.237.237,0,0,1,.273-.267h4.771V256.365A.237.237,0,0,1,81,256.1h2.5a.237.237,0,0,1,.267.267V267.9h2.792a1.626,1.626,0,0,0,.71-.121.783.783,0,0,0,.389-.4,2.009,2.009,0,0,0,.164-.753V252.565a.237.237,0,0,1,.267-.267h2.5a.237.237,0,0,1,.267.267v13.962c.164.935.9,1.4,2.2,1.4h.486Zm17.6-11.17a.237.237,0,0,1-.267-.267v-2.313a.237.237,0,0,1,.267-.267h2.252a.237.237,0,0,1,.273.267v2.313a.237.237,0,0,1-.273.267Zm3.491,0a.237.237,0,0,1-.267-.267v-2.313a.237.237,0,0,1,.267-.267h2.252a.237.237,0,0,1,.273.267v2.313a.237.237,0,0,1-.273.267ZM114,261.586a2.252,2.252,0,0,0-1.93.832,4.013,4.013,0,0,0-.607,2.428,3.843,3.843,0,0,0,.607,2.471,2.355,2.355,0,0,0,1.918.753,2.3,2.3,0,0,0,1.906-.765,3.909,3.909,0,0,0,.607-2.459c.006-2.143-.838-3.229-2.519-3.229Zm0,9.106a7.534,7.534,0,0,1-2.252-.322,4.353,4.353,0,0,1-1.748-1.02,4.856,4.856,0,0,1-1.129-1.821,7.891,7.891,0,0,1-.4-2.689,8.225,8.225,0,0,1,.419-2.792,4.638,4.638,0,0,1,1.153-1.851,4.437,4.437,0,0,1,1.76-1.02,7.685,7.685,0,0,1,4.4,0,4.437,4.437,0,0,1,1.76,1.02,4.7,4.7,0,0,1,1.153,1.851,8.232,8.232,0,0,1,.413,2.792,7.891,7.891,0,0,1-.4,2.689,4.638,4.638,0,0,1-1.141,1.821,4.437,4.437,0,0,1-1.76,1.02,7.424,7.424,0,0,1-2.246.376Zm13.774-9.106a2.222,2.222,0,0,0-1.906.917,4.055,4.055,0,0,0-.668,2.428,3.042,3.042,0,0,0,.686,2.313,2.865,2.865,0,0,0,1.973.607h2.386v-3.035a4.085,4.085,0,0,0-.607-2.428,2.161,2.161,0,0,0-1.882-.771Zm-.237,8.942a8.146,8.146,0,0,1-2.246-.279,3.873,3.873,0,0,1-1.651-.941A4.3,4.3,0,0,1,122.6,267.6a9.2,9.2,0,0,1,.079-5.384,5.166,5.166,0,0,1,1.214-1.906,4.674,4.674,0,0,1,1.76-1.074,6.471,6.471,0,0,1,2.094-.334,7.133,7.133,0,0,1,2.216.322,4.322,4.322,0,0,1,1.73,1.02,4.632,4.632,0,0,1,1.129,1.821,8.3,8.3,0,0,1,.4,2.762v6.283a4.751,4.751,0,0,1-1.263,3.679,5.336,5.336,0,0,1-3.679,1.159h-3.642a.237.237,0,0,1-.267-.273v-2.149a.237.237,0,0,1,.267-.267h3.144a5.031,5.031,0,0,0,.989-.091,1.675,1.675,0,0,0,.783-.388,1.985,1.985,0,0,0,.5-.832,4.82,4.82,0,0,0,.17-1.427ZM153.817,256.7a.237.237,0,0,1-.267-.267v-2.313a.237.237,0,0,1,.267-.267h2.252a.237.237,0,0,1,.273.267v2.313a.237.237,0,0,1-.273.267Zm3.491,0a.237.237,0,0,1-.267-.267v-2.313a.237.237,0,0,1,.267-.267h2.258a.237.237,0,0,1,.267.267v2.313a.237.237,0,0,1-.267.267Zm-.722,4.589a2.707,2.707,0,0,0-1.821.662A2.428,2.428,0,0,0,154,263.9a3.181,3.181,0,0,0,.753,2.21,5.014,5.014,0,0,0,1.821,1.305,5.111,5.111,0,0,0,1.821-1.305,3.181,3.181,0,0,0,.753-2.21,2.428,2.428,0,0,0-.753-1.949,2.653,2.653,0,0,0-1.827-.631Zm7.236,6.611h1.287a1.348,1.348,0,0,0,.983-.31,1.56,1.56,0,0,0,.3-1.111V252.565a.237.237,0,0,1,.273-.267h2.495a.237.237,0,0,1,.267.267v14.612a3.788,3.788,0,0,1-.722,2.562,3.09,3.09,0,0,1-2.428.819h-6.222a13.422,13.422,0,0,1-1.821-.079,3.782,3.782,0,0,1-1.639-.565,4.7,4.7,0,0,1-1.894.565c-.668.055-1.269.079-1.785.079h-3.594a5.559,5.559,0,0,1-1.93-.3,2.27,2.27,0,0,1-1.275-1.214,2.544,2.544,0,0,1-1.384,1.214,6.817,6.817,0,0,1-2.24.31H136.48a.237.237,0,0,1-.267-.267v-2.125a.237.237,0,0,1,.267-.267h5a4.857,4.857,0,0,0,1.153-.109,1.214,1.214,0,0,0,.656-.358,1.257,1.257,0,0,0,.3-.662,6.387,6.387,0,0,0,.067-.989v-1.821a2.2,2.2,0,0,0-.686-1.821,3.169,3.169,0,0,0-2.052-.565h-3.223a.237.237,0,0,1-.267-.267V259.17a.237.237,0,0,1,.267-.267h4.079a5.36,5.36,0,0,1,3.588,1.129,4.569,4.569,0,0,1,1.329,3.679v2.519a1.4,1.4,0,0,0,.607,1.214,2.647,2.647,0,0,0,1.609.431h4.249a5.318,5.318,0,0,1-1.6-1.785,4.856,4.856,0,0,1-.607-2.428,4.431,4.431,0,0,1,1.451-3.478,7.4,7.4,0,0,1,8.377,0,4.45,4.45,0,0,1,1.451,3.478,4.856,4.856,0,0,1-.607,2.428,5.16,5.16,0,0,1-1.627,1.785h3.849Zm12.141,2.392a.237.237,0,0,1-.267.267H173.2a.237.237,0,0,1-.273-.267V252.565a.237.237,0,0,1,.273-.267H175.7a.237.237,0,0,1,.267.267Zm30.771-8.675a2.228,2.228,0,0,0-1.906.832,4.055,4.055,0,0,0-.607,2.428,3.934,3.934,0,0,0,.607,2.471,2.811,2.811,0,0,0,3.843,0,3.909,3.909,0,0,0,.607-2.459c0-2.185-.85-3.272-2.556-3.272Zm31.311,0a2.228,2.228,0,0,0-1.912.82,4.013,4.013,0,0,0-.607,2.428,3.891,3.891,0,0,0,.607,2.471,2.811,2.811,0,0,0,3.843,0,3.952,3.952,0,0,0,.607-2.459q0-3.26-2.55-3.26Zm0,9.106a7.51,7.51,0,0,1-2.428-.364,3.964,3.964,0,0,1-1.821-1.214,2.428,2.428,0,0,1-.65.7,3.313,3.313,0,0,1-.777.413,3.868,3.868,0,0,1-.832.2,6.366,6.366,0,0,1-.807.055h-.953a5.84,5.84,0,0,1-1.961-.3,2.252,2.252,0,0,1-1.3-1.287,2.683,2.683,0,0,1-1.408,1.25,6.283,6.283,0,0,1-2.191.334h-9.2a4.4,4.4,0,0,1-1-.176,3.757,3.757,0,0,1-.941-.431,2.786,2.786,0,0,1-.789-.789,4.061,4.061,0,0,1-1.821,1.214,8.208,8.208,0,0,1-4.856,0,4,4,0,0,1-1.821-1.214,2.489,2.489,0,0,1-.643.7,3.316,3.316,0,0,1-.777.413,3.923,3.923,0,0,1-.838.2,6.351,6.351,0,0,1-.8.055H198.5a5.561,5.561,0,0,1-1.93-.3,2.27,2.27,0,0,1-1.275-1.214,2.544,2.544,0,0,1-1.384,1.214,6.816,6.816,0,0,1-2.24.31h-6.016a.237.237,0,0,1-.267-.267v-2.125a.237.237,0,0,1,.267-.267h5a4.853,4.853,0,0,0,1.153-.109,1.139,1.139,0,0,0,.953-1.02,6.386,6.386,0,0,0,.067-.989V263.9a2.185,2.185,0,0,0-.686-1.821,3.169,3.169,0,0,0-2.052-.565h-3.223a.237.237,0,0,1-.267-.267V259.1a.237.237,0,0,1,.267-.267h4.085a5.354,5.354,0,0,1,3.582,1.129,4.569,4.569,0,0,1,1.329,3.679v2.519a1.4,1.4,0,0,0,.607,1.214,2.671,2.671,0,0,0,1.615.431h1.5a1.59,1.59,0,0,0,1.159-.522,2.847,2.847,0,0,0,.534-1.918,3.236,3.236,0,0,1,0-.407v-.4a7.8,7.8,0,0,1,.443-2.647,4.638,4.638,0,0,1,1.153-1.773,4.461,4.461,0,0,1,1.73-.99,7.284,7.284,0,0,1,2.173-.31,7.163,7.163,0,0,1,2.2.322,4.438,4.438,0,0,1,1.76,1.02,4.705,4.705,0,0,1,1.153,1.852,8.225,8.225,0,0,1,.419,2.792v.473a3.539,3.539,0,0,1-.03.443,2.21,2.21,0,0,0,.528,1.6,1.615,1.615,0,0,0,1.135.467h7.892a4.718,4.718,0,0,0,1.129-.109,1.263,1.263,0,0,0,.668-.37,1.372,1.372,0,0,0,.322-.716,6.024,6.024,0,0,0,.085-1.087,7.218,7.218,0,0,0-.164-1.584,3.594,3.594,0,0,0-.534-1.263,2.653,2.653,0,0,0-.983-.844,3.29,3.29,0,0,0-1.518-.31,3.594,3.594,0,0,0-1.609.352,4.352,4.352,0,0,0-1.287.935.243.243,0,0,1-.376.03l-1.4-1.451c-.146-.146-.164-.267-.055-.376a6.963,6.963,0,0,1,1.985-1.554,5.913,5.913,0,0,1,2.823-.607,7.285,7.285,0,0,1,3,.546,5.038,5.038,0,0,1,1.93,1.481,5.627,5.627,0,0,1,1.038,2.149,10.483,10.483,0,0,1,.31,2.586,3.177,3.177,0,0,1,0,.352v.322a1.506,1.506,0,0,0,.662,1.129,2.7,2.7,0,0,0,1.566.4h1.505a1.445,1.445,0,0,0,.607-.121,1.4,1.4,0,0,0,.54-.4,2.361,2.361,0,0,0,.4-.753,3.57,3.57,0,0,0,.164-1.166,3.3,3.3,0,0,1-.03-.407v-.4a7.946,7.946,0,0,1,.443-2.647,4.7,4.7,0,0,1,1.153-1.773,4.528,4.528,0,0,1,1.736-.989,7.284,7.284,0,0,1,2.173-.31,7.162,7.162,0,0,1,2.2.322,4.48,4.48,0,0,1,1.76,1.02,4.7,4.7,0,0,1,1.153,1.851,8.384,8.384,0,0,1,.413,2.792,7.891,7.891,0,0,1-.4,2.689,4.686,4.686,0,0,1-1.129,1.821,4.286,4.286,0,0,1-1.742,1.02,7.545,7.545,0,0,1-2.349.376Zm31.846-14.017a.237.237,0,0,1-.267-.267v-2.313a.237.237,0,0,1,.267-.267h2.58a.237.237,0,0,1,.267.267v2.313a.237.237,0,0,1-.267.267Zm1.153,4.856a9.781,9.781,0,0,0-2.951.456,19.975,19.975,0,0,0-2.579,1v4.856h5.749q1.129,0,1.821-.055a2.27,2.27,0,0,0,1.1-.31,1.214,1.214,0,0,0,.522-.789,6.535,6.535,0,0,0,.14-1.53,6.07,6.07,0,0,0-.176-1.53,2.428,2.428,0,0,0-.607-1.129,2.92,2.92,0,0,0-1.166-.7,5.912,5.912,0,0,0-1.864-.212Zm-17.1,2.956c.085-.164.225-.182.4-.055l2.173.856c.091.036.14.085.152.152a.364.364,0,0,1-.042.2,13.023,13.023,0,0,0-.82,1.76,6.034,6.034,0,0,0-.389,2.21,4.086,4.086,0,0,0,.334,1.76,3.206,3.206,0,0,0,.862,1.141,3.035,3.035,0,0,0,1.166.607,4.856,4.856,0,0,0,1.263.176,3.642,3.642,0,0,0,2.483-.819,3.314,3.314,0,0,0,.953-2.647V259.552a.243.243,0,0,1,.273-.273h2.495a.237.237,0,0,1,.267.273v.88a17.479,17.479,0,0,1,2.792-1.032,11.256,11.256,0,0,1,3.169-.443,8.76,8.76,0,0,1,3.035.455,5.312,5.312,0,0,1,2.028,1.287,5.032,5.032,0,0,1,1.153,2.028,9.063,9.063,0,0,1,.358,2.647,9.893,9.893,0,0,1-.3,2.713,3.187,3.187,0,0,1-.971,1.572,3.642,3.642,0,0,1-1.718.735,14.878,14.878,0,0,1-2.592.188h-5.718l-1.214-.043a5.462,5.462,0,0,1-1.949,4.219,7.284,7.284,0,0,1-4.607,1.4,8.733,8.733,0,0,1-2.616-.376,5.84,5.84,0,0,1-2.137-1.2,5.221,5.221,0,0,1-1.378-1.918,6.787,6.787,0,0,1-.5-2.714,9.647,9.647,0,0,1,.455-2.9,10.319,10.319,0,0,1,1.129-2.471Zm42.1,2.471a7.173,7.173,0,0,0,.868-.65,5.2,5.2,0,0,0,.783-.813,4.506,4.506,0,0,0,.546-.953,2.646,2.646,0,0,0,.219-1.05,1.584,1.584,0,0,0-.8-1.53,4.249,4.249,0,0,0-2.028-.431,7.319,7.319,0,0,0-1.864.212,6.068,6.068,0,0,0-1.087.376,7.43,7.43,0,0,1,2.106,2.028,8.353,8.353,0,0,1,1.238,2.865Zm15.3-5.427a2.222,2.222,0,0,0-1.906.832,4.013,4.013,0,0,0-.607,2.428,3.891,3.891,0,0,0,.607,2.471,2.313,2.313,0,0,0,1.906.753,2.337,2.337,0,0,0,1.93-.765,3.909,3.909,0,0,0,.607-2.459c0-2.119-.85-3.205-2.55-3.205Zm0,9.106a7.48,7.48,0,0,1-2.428-.364,4.019,4.019,0,0,1-1.821-1.214,2.428,2.428,0,0,1-.643.7,3.312,3.312,0,0,1-.777.413,3.866,3.866,0,0,1-.832.2,6.435,6.435,0,0,1-.807.055H299.1a9.007,9.007,0,0,1-1.821-.176,4.953,4.953,0,0,1-1.657-.565,6.07,6.07,0,0,1-1.876.656,9.97,9.97,0,0,1-1.773.176h-3.9a6.643,6.643,0,0,1-1.536-.158,2.052,2.052,0,0,1-1.117-.729v.51a11.611,11.611,0,0,1-.243,2.537,4.607,4.607,0,0,1-.789,1.821,3.369,3.369,0,0,1-1.463,1.087,6.107,6.107,0,0,1-2.258.364h-.989a.243.243,0,0,1-.273-.273v-2.149a.237.237,0,0,1,.273-.267h.607a2.258,2.258,0,0,0,1.214-.267,1.554,1.554,0,0,0,.607-.789,4.317,4.317,0,0,0,.243-1.263c0-.492.036-1.062.036-1.706v-9.585a.243.243,0,0,1,.273-.273h2.495a.237.237,0,0,1,.267.273v6.55a1.414,1.414,0,0,0,.607,1.214,2.7,2.7,0,0,0,1.621.431h3.6q.425,0,.965-.036a9.312,9.312,0,0,0,1.263-.206,5.864,5.864,0,0,0-.607-1.53,6.229,6.229,0,0,0-.819-1.141,7.454,7.454,0,0,0-.977-.886l-1.062-.765a.771.771,0,0,1-.334-.389,1.523,1.523,0,0,1-.043-.388v-1.694c0-.194.17-.413.51-.643a5.665,5.665,0,0,1,1.342-.607,12.611,12.611,0,0,1,1.912-.467,12.434,12.434,0,0,1,2.2-.188,7.148,7.148,0,0,1,4.51,1.153,3.709,3.709,0,0,1,1.427,3.035,4.474,4.474,0,0,1-.255,1.518,5.779,5.779,0,0,1-.662,1.311,6.129,6.129,0,0,1-.911,1.093,7.38,7.38,0,0,1-1,.8,1.95,1.95,0,0,0,.473.055h4.953a1.463,1.463,0,0,0,.607-.121,1.4,1.4,0,0,0,.54-.4,2.361,2.361,0,0,0,.4-.753,3.581,3.581,0,0,0,.158-1.166,3.23,3.23,0,0,1,0-.407v-.4a7.793,7.793,0,0,1,.443-2.647,4.7,4.7,0,0,1,1.153-1.773,4.462,4.462,0,0,1,1.73-.99,7.328,7.328,0,0,1,2.179-.31,7.194,7.194,0,0,1,2.2.322,4.413,4.413,0,0,1,1.754,1.02,4.638,4.638,0,0,1,1.153,1.851,8.227,8.227,0,0,1,.419,2.792,7.891,7.891,0,0,1-.4,2.689,4.856,4.856,0,0,1-1.129,1.821,4.353,4.353,0,0,1-1.748,1.02,7.534,7.534,0,0,1-2.258.291ZM15.405,267.9a1.378,1.378,0,0,0,1.008-.31,1.56,1.56,0,0,0,.31-1.111v-6.793c0-.182.085-.273.267-.273H19.46a.237.237,0,0,1,.267.273v7.491A3.818,3.818,0,0,1,19,269.72a3.177,3.177,0,0,1-2.471.82H3.137a3.1,3.1,0,0,1-2.428-.82,3.818,3.818,0,0,1-.716-2.544V261.4a.237.237,0,0,1,.267-.273H2.73c.182,0,.267.091.267.273v5.075a1.56,1.56,0,0,0,.31,1.111,1.347,1.347,0,0,0,.983.31Z" transform="translate(0.02 -99.141)" fill="#31864b" fill-rule="evenodd"/>
      <path id="Path_12432" data-name="Path 12432" d="M13.911,311.454a1.445,1.445,0,0,0,.9-.261,1.366,1.366,0,0,0,.5-.716,2.134,2.134,0,0,0,.067-.267c0-.1.03-.219.042-.364s0-.322,0-.528V307.3a.939.939,0,0,0-.042-.364,2.136,2.136,0,0,0-.067-.267,1.366,1.366,0,0,0-.5-.716,1.675,1.675,0,0,0-1.821,0,1.366,1.366,0,0,0-.5.716,1.451,1.451,0,0,0-.061.267,3.588,3.588,0,0,0-.049.364q0,.219,0,.528v2.015a3.586,3.586,0,0,0,.049.364,1.451,1.451,0,0,0,.061.267,1.366,1.366,0,0,0,.5.716,1.457,1.457,0,0,0,.9.261m0,1.694a3.77,3.77,0,0,1-2.028-.534A2.811,2.811,0,0,1,10.645,311c-.049-.158-.091-.31-.121-.455a4.871,4.871,0,0,1-.073-.5c-.018-.182-.03-.388-.036-.607s0-.516,0-.85v-.844a3.012,3.012,0,0,1,.036-.607,4.855,4.855,0,0,1,.073-.5,1.7,1.7,0,0,1,.121-.455,2.853,2.853,0,0,1,1.214-1.609,3.721,3.721,0,0,1,2.028-.54,3.709,3.709,0,0,1,2.028.54,2.829,2.829,0,0,1,1.214,1.609c.049.158.091.31.121.455a4.855,4.855,0,0,1,.073.5c0,.182.03.388.036.607s0,.516,0,.844v.85a2.981,2.981,0,0,1-.036.607c-.036.164-.042.346-.073.5a4.618,4.618,0,0,1-.121.455,2.78,2.78,0,0,1-1.214,1.615,3.758,3.758,0,0,1-2,.534Zm4.941-8.875a.115.115,0,0,1,.134-.134h1.651a.115.115,0,0,1,.134.134v3.32c0,.055,0,.079.079.079h2.9c.049,0,.073,0,.073-.079v-3.32a.121.121,0,0,1,.134-.134h1.657c.085,0,.127.043.127.134v8.6c0,.091-.042.134-.127.134H23.945a.121.121,0,0,1-.134-.134v-3.412c0-.055,0-.079-.073-.079H20.85c-.055,0-.079,0-.079.079v3.412a.115.115,0,0,1-.134.134H18.986a.115.115,0,0,1-.134-.134Zm13.009,5.421-1-3.1h-.042l-1,3.1Zm-1.991-5.421a.158.158,0,0,1,.17-.134h1.639a.164.164,0,0,1,.17.134l3,8.6c0,.091,0,.134-.091.134H33.015a.164.164,0,0,1-.17-.134l-.51-1.548h-3.1l-.5,1.548a.158.158,0,0,1-.17.134H26.859c-.085,0-.115-.042-.091-.134Zm6.01,0c0-.091.042-.134.127-.134h1.554a.194.194,0,0,1,.206.134l2.246,5.057h.049l2.2-5.057a.2.2,0,0,1,.212-.134h1.524c.085,0,.127.043.127.134v8.6c0,.091-.042.134-.127.134h-1.5c-.085,0-.127-.042-.127-.134v-4.99H42.3l-1.639,3.739a.261.261,0,0,1-.249.17h-.9a.255.255,0,0,1-.249-.17l-1.645-3.739h-.055v4.99c0,.091-.042.134-.127.134H35.959c-.085,0-.127-.042-.127-.134Zm9.949,0c0-.091.042-.134.127-.134h1.554a.2.2,0,0,1,.206.134l2.246,5.057h.049l2.2-5.057a.2.2,0,0,1,.212-.134h1.524c.085,0,.127.043.127.134v8.6c0,.091-.042.134-.127.134h-1.5c-.085,0-.127-.042-.127-.134v-4.99h-.055L50.6,311.624a.249.249,0,0,1-.243.17h-.917a.249.249,0,0,1-.243-.17l-1.645-3.739H47.5v4.99c0,.091-.042.134-.127.134H45.908c-.085,0-.127-.042-.127-.134Zm9.943,0a.121.121,0,0,1,.134-.134h5.682a.115.115,0,0,1,.134.134v1.4c0,.085-.042.127-.134.127H57.721a.073.073,0,0,0-.079.079v1.766a.073.073,0,0,0,.079.079H60.9c.091,0,.134.042.134.127v1.384c0,.085-.042.127-.134.127H57.721a.073.073,0,0,0-.079.079v1.821a.073.073,0,0,0,.079.079H61.54c.091,0,.134.042.134.127v1.4a.115.115,0,0,1-.134.134H55.858a.121.121,0,0,1-.134-.134Zm9.288,6.951c0,.049,0,.073.079.073h1a2.246,2.246,0,0,0,1.068-.212,1.214,1.214,0,0,0,.607-.765.886.886,0,0,0,.061-.212,2.636,2.636,0,0,0,.049-.322v-2.41a2.637,2.637,0,0,0-.049-.322,1.508,1.508,0,0,0-.668-.989,2.246,2.246,0,0,0-1.068-.212h-1c-.055,0-.079,0-.079.073Zm-1.918-6.951a.115.115,0,0,1,.134-.134h3.3a3.557,3.557,0,0,1,1.955.5,2.683,2.683,0,0,1,1.111,1.5,1.966,1.966,0,0,0,.1.382c.03.134.055.3.079.48a6.122,6.122,0,0,1,.042.65c.006.255,0,.558,0,.923v.929a2.984,2.984,0,0,1-.042.65c-.042.182-.049.346-.079.48s-.067.261-.1.382a2.683,2.683,0,0,1-1.111,1.5,3.557,3.557,0,0,1-1.955.5h-3.3a.115.115,0,0,1-.134-.134Zm15.674,5.421-1.008-3.1h-.036l-1,3.1Zm-2.034-5.421a.17.17,0,0,1,.17-.134h1.651a.17.17,0,0,1,.17.134l3,8.6c0,.091,0,.134-.091.134h-1.7a.158.158,0,0,1-.164-.134l-.51-1.548h-3.1l-.5,1.548a.164.164,0,0,1-.17.134H73.808c-.091,0-.121-.042-.091-.134Zm6.01,0a.121.121,0,0,1,.134-.134h1.657c.085,0,.127.043.127.134v6.951c0,.049,0,.073.079.073h3.909a.121.121,0,0,1,.134.134v1.445a.115.115,0,0,1-.134.134H82.9a.121.121,0,0,1-.134-.134Zm7.005,6.07a.121.121,0,0,1-.134-.134V308.88a.115.115,0,0,1,.134-.128h3.752c.091,0,.134.042.134.127v1.329a.121.121,0,0,1-.134.134Zm8.5,1.117a2.089,2.089,0,0,0,.467-.049l-.558-.565a.115.115,0,0,1,0-.182l1.038-.989a.134.134,0,0,1,.2,0l.352.352c0-.146.03-.334.036-.565s0-.528,0-.9V307.29a.858.858,0,0,0-.049-.37,2.211,2.211,0,0,0-.061-.267,1.372,1.372,0,0,0-.5-.716,1.706,1.706,0,0,0-1.821,0,1.329,1.329,0,0,0-.5.716,1.427,1.427,0,0,0-.067.267c0,.1-.036.225-.049.37s0,.328,0,.534v2.021a1.9,1.9,0,0,0,.049.37,1.427,1.427,0,0,0,.067.267,1.329,1.329,0,0,0,.5.716,1.5,1.5,0,0,0,.941.267Zm2.89,2.179a.17.17,0,0,1-.091.049.146.146,0,0,1-.1-.049l-.9-.9a4.007,4.007,0,0,1-1.821.4,3.758,3.758,0,0,1-2.028-.534,2.756,2.756,0,0,1-1.214-1.615,3.711,3.711,0,0,1-.127-.455c-.03-.152-.049-.316-.067-.5s-.03-.389-.042-.607,0-.516,0-.85v-.844a2.59,2.59,0,0,1,.042-.607,4.969,4.969,0,0,1,.067-.5,3.709,3.709,0,0,1,.127-.455,2.8,2.8,0,0,1,1.214-1.609,4.1,4.1,0,0,1,4.055,0,2.853,2.853,0,0,1,1.214,1.615,3.707,3.707,0,0,1,.127.455,3.64,3.64,0,0,1,.067.5,3.1,3.1,0,0,0,.043.607,5.54,5.54,0,0,1,0,.844v.85a2.563,2.563,0,0,1-.043.607,3.806,3.806,0,0,1-.067.5,3.7,3.7,0,0,1-.127.455,2.848,2.848,0,0,1-.1.273c-.036.085-.073.176-.115.261l.923.911a.115.115,0,0,1,0,.182Zm5.415-.5a4.141,4.141,0,0,1-1.372-.219,2.908,2.908,0,0,1-1.779-1.724,3.9,3.9,0,0,1-.255-1.457v-5.463a.115.115,0,0,1,.134-.134h1.651a.115.115,0,0,1,.134.134V309.8a1.7,1.7,0,0,0,.407,1.214,1.554,1.554,0,0,0,2.149,0,1.724,1.724,0,0,0,.4-1.214v-5.524a.121.121,0,0,1,.134-.134h1.657c.085,0,.127.043.127.134v5.463a3.9,3.9,0,0,1-.255,1.457,2.883,2.883,0,0,1-.7,1.068,2.956,2.956,0,0,1-1.068.656,4.068,4.068,0,0,1-1.317.225Zm6.963-1.924c0,.049,0,.073.079.073h1a2.246,2.246,0,0,0,1.068-.212,1.214,1.214,0,0,0,.607-.765.886.886,0,0,0,.061-.212,2.634,2.634,0,0,0,.049-.322v-2.41a2.634,2.634,0,0,0-.049-.322,1.508,1.508,0,0,0-.668-.989,2.246,2.246,0,0,0-1.068-.212h-1c-.055,0-.079,0-.079.073Zm-1.918-6.951c0-.091.042-.134.127-.134h3.3a3.557,3.557,0,0,1,1.955.5,2.683,2.683,0,0,1,1.111,1.5c.03.121.067.249.1.382s.055.3.079.48a6.122,6.122,0,0,1,.042.65c.006.255,0,.558,0,.923v.929a2.985,2.985,0,0,1-.042.65c-.042.182-.049.346-.079.48s-.067.261-.1.382a2.683,2.683,0,0,1-1.111,1.5,3.557,3.557,0,0,1-1.955.5h-3.3c-.085,0-.127-.043-.127-.134ZM126.19,313a.17.17,0,0,1-.17-.134l-1.536-5.512h0l-1.548,5.512a.164.164,0,0,1-.17.134h-1.305c-.079,0-.127-.043-.158-.134l-2.295-8.6c0-.091,0-.134.1-.134H120.8a.14.14,0,0,1,.152.134l1.281,5.567h0l1.512-5.567a.17.17,0,0,1,.17-.134h1.135a.158.158,0,0,1,.158.134l1.566,5.567h0l1.214-5.567c0-.091.061-.134.158-.134h1.669c.085,0,.121.042.1.134l-2.282,8.6a.152.152,0,0,1-.17.134Zm8.711-3.314-1-3.1h-.042l-1,3.1Zm-2-5.421a.17.17,0,0,1,.17-.134h1.645a.17.17,0,0,1,.17.134l3,8.6c0,.091,0,.134-.091.134h-1.7a.158.158,0,0,1-.164-.134l-.51-1.548h-3.1l-.5,1.548a.164.164,0,0,1-.17.134h-1.706c-.091,0-.121-.043-.091-.134Zm9.106,6.677a2.629,2.629,0,0,1-.127-.425,4.606,4.606,0,0,1-.073-.486,3.675,3.675,0,0,0-.036-.607,6.835,6.835,0,0,1,0-.868V307.7a2.891,2.891,0,0,1,.036-.607,4.251,4.251,0,0,1,.073-.48,3.394,3.394,0,0,1,.127-.431,2.926,2.926,0,0,1,1.166-1.633,3.9,3.9,0,0,1,3.909-.03,3.035,3.035,0,0,1,1.166,1.457c.049.079,0,.127-.061.158l-1.42.637c-.079.042-.14,0-.182-.067a2.07,2.07,0,0,0-.516-.716,1.354,1.354,0,0,0-.9-.285,1.317,1.317,0,0,0-.85.261,1.408,1.408,0,0,0-.48.716,1.539,1.539,0,0,1-.061.255,3.154,3.154,0,0,0-.049.346v2.6a3.157,3.157,0,0,0,.049.346.872.872,0,0,0,.061.255,1.408,1.408,0,0,0,.48.716,1.317,1.317,0,0,0,.85.261,1.354,1.354,0,0,0,.9-.285,2.07,2.07,0,0,0,.516-.716c.043-.091.1-.109.182-.067l1.42.637c.085.03.109.079.061.158a3.035,3.035,0,0,1-1.166,1.457,3.9,3.9,0,0,1-3.909-.03,2.926,2.926,0,0,1-1.141-1.639Zm10.726.48a1.481,1.481,0,0,0,.9-.261,1.39,1.39,0,0,0,.492-.716,2.139,2.139,0,0,0,.067-.267,1.218,1.218,0,0,1,.043-.364,2.179,2.179,0,0,0,0-.528v-2.015a.939.939,0,0,0-.042-.364,2.137,2.137,0,0,0-.067-.267,1.39,1.39,0,0,0-.492-.716,1.481,1.481,0,0,0-.9-.261,1.457,1.457,0,0,0-.9.261,1.323,1.323,0,0,0-.492.716,1.425,1.425,0,0,0-.067.267,3.6,3.6,0,0,0-.049.364v2.544a3.59,3.59,0,0,0,.049.364,1.426,1.426,0,0,0,.067.267,1.323,1.323,0,0,0,.492.716,1.457,1.457,0,0,0,.923.291Zm0,1.694a3.788,3.788,0,0,1-2.028-.534,2.774,2.774,0,0,1-1.214-1.615,3.71,3.71,0,0,1-.127-.455c0-.152-.055-.316-.073-.5s-.03-.388-.036-.607,0-.516,0-.85v-.844a3.012,3.012,0,0,1,.036-.607,4.857,4.857,0,0,1,.073-.5,3.709,3.709,0,0,1,.127-.455,2.817,2.817,0,0,1,1.214-1.609,4.073,4.073,0,0,1,4.055,0,2.8,2.8,0,0,1,1.214,1.609,3.645,3.645,0,0,1,.121.455,4.856,4.856,0,0,1,.073.5,3.1,3.1,0,0,0,.043.607,5.54,5.54,0,0,1,0,.844v.85a2.563,2.563,0,0,1-.042.607c-.043.164-.043.346-.073.5a3.644,3.644,0,0,1-.121.455,2.756,2.756,0,0,1-1.214,1.615,3.758,3.758,0,0,1-2,.565Zm4.941-8.875a.121.121,0,0,1,.134-.134h1.554a.2.2,0,0,1,.206.134l2.24,5.057h.055l2.2-5.057a.2.2,0,0,1,.206-.134h1.53c.085,0,.127.043.127.134v8.6c0,.091-.042.134-.127.134h-1.451a.115.115,0,0,1-.134-.134v-4.96h-.049l-1.645,3.739a.255.255,0,0,1-.249.17h-.9a.255.255,0,0,1-.249-.17l-1.639-3.739h-.055v4.99c0,.091-.042.134-.127.134h-1.475a.121.121,0,0,1-.134-.134Zm9.949,0a.115.115,0,0,1,.134-.134h1.548a.206.206,0,0,1,.212.134l2.24,5.057h.055l2.2-5.057a.194.194,0,0,1,.206-.134h1.524a.115.115,0,0,1,.134.134v8.6a.115.115,0,0,1-.134.134H174.28a.115.115,0,0,1-.134-.134v-4.96H174.1l-1.645,3.739a.255.255,0,0,1-.249.17h-.9a.255.255,0,0,1-.249-.17l-1.645-3.739h-.049v4.99a.115.115,0,0,1-.134.134h-1.414a.115.115,0,0,1-.134-.134Zm13.312,8.875a4.1,4.1,0,0,1-1.366-.219,2.926,2.926,0,0,1-1.074-.656,2.81,2.81,0,0,1-.7-1.068,3.9,3.9,0,0,1-.255-1.457v-5.463c0-.091.042-.134.127-.134h1.682c.085,0,.127.043.127.134v5.524a1.724,1.724,0,0,0,.407,1.214,1.4,1.4,0,0,0,1.081.431,1.378,1.378,0,0,0,1.068-.431,1.7,1.7,0,0,0,.407-1.214v-5.524c0-.091.042-.134.127-.134h1.639a.115.115,0,0,1,.134.134v5.463a3.9,3.9,0,0,1-.255,1.457,2.957,2.957,0,0,1-.7,1.068,3.036,3.036,0,0,1-1.068.656,4.079,4.079,0,0,1-1.348.249Zm5.087-8.845a.121.121,0,0,1,.134-.134h1.566a.231.231,0,0,1,.219.134l3.132,5.579h.067v-5.579c0-.091.042-.134.127-.134H192.7c.085,0,.127.043.127.134v8.6c0,.091-.042.134-.127.134H191.15a.231.231,0,0,1-.219-.134l-3.144-5.567h-.067v5.567c0,.091-.042.134-.127.134h-1.475a.121.121,0,0,1-.134-.134Zm8.541,0a.121.121,0,0,1,.134-.134h1.645c.085,0,.127.043.127.134v8.6c0,.091-.043.134-.127.134h-1.657a.121.121,0,0,1-.134-.134Zm3.642,6.677a2.632,2.632,0,0,1-.127-.425,4.606,4.606,0,0,1-.073-.486c0-.176-.03-.382-.036-.607s0-.528,0-.868V307.7a2.892,2.892,0,0,1,.036-.607,4.247,4.247,0,0,1,.073-.48,3.39,3.39,0,0,1,.127-.431,2.926,2.926,0,0,1,1.166-1.633,3.9,3.9,0,0,1,3.909-.03,3.035,3.035,0,0,1,1.166,1.457c.049.079,0,.127-.061.158l-1.42.637c-.079.043-.14,0-.188-.067a1.979,1.979,0,0,0-.51-.716,1.354,1.354,0,0,0-.9-.285,1.317,1.317,0,0,0-.85.261,1.408,1.408,0,0,0-.48.716,1.532,1.532,0,0,1-.061.255,3.151,3.151,0,0,0-.049.346c0,.14,0,.31,0,.522v2.082a3.154,3.154,0,0,0,.049.346.872.872,0,0,0,.061.255,1.408,1.408,0,0,0,.48.716,1.318,1.318,0,0,0,.85.261,1.354,1.354,0,0,0,.9-.285,1.979,1.979,0,0,0,.51-.716c.049-.091.109-.109.188-.067l1.42.637c.085.03.109.079.061.158a3.035,3.035,0,0,1-1.166,1.457,3.9,3.9,0,0,1-3.909-.03,2.926,2.926,0,0,1-1.208-1.645Zm11.862-1.281-1-3.1h-.042l-1,3.1Zm-2-5.421a.17.17,0,0,1,.17-.134h1.645a.164.164,0,0,1,.17.134l3,8.6c0,.091,0,.134-.091.134h-1.694a.158.158,0,0,1-.17-.134l-.51-1.548h-3.1l-.5,1.548a.158.158,0,0,1-.17.134h-1.736c-.085,0-.115-.043-.091-.134Zm7.09,8.76c-.085,0-.127-.042-.127-.134v-6.951c0-.049,0-.073-.079-.073h-2.222a.121.121,0,0,1-.134-.134v-1.445a.115.115,0,0,1,.134-.134h6.556a.121.121,0,0,1,.134.134v1.445a.121.121,0,0,1-.134.134h-2.246c-.055,0-.079,0-.079.073v6.951a.115.115,0,0,1-.134.134Zm5.312-8.735c0-.091.042-.134.127-.134h1.657c.085,0,.127.043.127.134v8.6c0,.091-.042.134-.127.134h-1.633c-.085,0-.127-.042-.127-.134Zm6.86,7.181a1.457,1.457,0,0,0,.9-.261,1.354,1.354,0,0,0,.492-.716,1.426,1.426,0,0,0,.067-.267,1.072,1.072,0,0,1,.049-.364,1.91,1.91,0,0,0,0-.528V307.3a1.827,1.827,0,0,0-.049-.364,1.423,1.423,0,0,0-.067-.267,1.354,1.354,0,0,0-.492-.716,1.688,1.688,0,0,0-1.821,0,1.354,1.354,0,0,0-.492.716,1.426,1.426,0,0,0-.067.267c0,.1-.03.219-.049.364a5.069,5.069,0,0,0,0,.528v2.015a1.828,1.828,0,0,0,.049.364,1.428,1.428,0,0,0,.067.267,1.354,1.354,0,0,0,.492.716,1.469,1.469,0,0,0,.935.261Zm0,1.694a3.794,3.794,0,0,1-2.034-.534A2.774,2.774,0,0,1,224.088,311a3.712,3.712,0,0,1-.127-.455,3.807,3.807,0,0,1-.067-.5c0-.182-.03-.389-.043-.607s0-.516,0-.85v-.844a2.589,2.589,0,0,1,.042-.607,3.647,3.647,0,0,1,.067-.5,3.713,3.713,0,0,1,.127-.455,2.817,2.817,0,0,1,1.214-1.609,3.746,3.746,0,0,1,2.034-.54,3.7,3.7,0,0,1,2.021.54,2.8,2.8,0,0,1,1.214,1.609,3.714,3.714,0,0,1,.128.455,3.635,3.635,0,0,1,.067.5c0,.182.03.389.042.607s0,.516,0,.844v.85a2.563,2.563,0,0,1-.042.607,3.807,3.807,0,0,1-.067.5,3.7,3.7,0,0,1-.127.455,2.756,2.756,0,0,1-1.214,1.615,3.751,3.751,0,0,1-2.009.534Zm4.941-8.875c0-.091.042-.134.127-.134h1.578a.231.231,0,0,1,.219.134l3.132,5.579h.067v-5.579c0-.091.042-.134.127-.134H239c.085,0,.127.043.127.134v8.6c0,.091-.043.134-.127.134h-1.554a.231.231,0,0,1-.219-.134l-3.144-5.567h-.067v5.567c0,.091-.042.134-.127.134h-1.475c-.085,0-.127-.042-.127-.134Zm11.534,8.875a5.181,5.181,0,0,1-1.02-.1,5.7,5.7,0,0,1-.947-.261,5.03,5.03,0,0,1-.813-.382,3.345,3.345,0,0,1-.607-.467.152.152,0,0,1,0-.225l1-1.135c.049-.067.115-.073.194,0a5.306,5.306,0,0,0,1.032.607,2.92,2.92,0,0,0,1.287.279,1.694,1.694,0,0,0,1.074-.291.923.923,0,0,0,.376-.759.807.807,0,0,0-.291-.643,2.2,2.2,0,0,0-1.081-.352l-.467-.061a3.885,3.885,0,0,1-2.082-.832,2.331,2.331,0,0,1-.722-1.821,2.652,2.652,0,0,1,.225-1.111,2.385,2.385,0,0,1,.607-.856,2.841,2.841,0,0,1,.989-.546,3.968,3.968,0,0,1,1.3-.194,5.554,5.554,0,0,1,1.669.243,4.492,4.492,0,0,1,1.342.68c.079.055.085.115,0,.194l-.8,1.214a.121.121,0,0,1-.182.036,4.5,4.5,0,0,0-.983-.546,3.393,3.393,0,0,0-1.05-.164,1.269,1.269,0,0,0-.886.273.892.892,0,0,0-.3.686.783.783,0,0,0,.31.607,2.27,2.27,0,0,0,1.074.352l.467.061a3.739,3.739,0,0,1,2.088.832,2.428,2.428,0,0,1,.7,1.858,2.7,2.7,0,0,1-.225,1.111,2.3,2.3,0,0,1-.656.886,3.144,3.144,0,0,1-1.087.607,4.99,4.99,0,0,1-1.536.219Zm7.849-8.875a.121.121,0,0,1,.134-.134h5.682a.115.115,0,0,1,.134.134v1.4c0,.085-.043.127-.134.127h-3.818c-.055,0-.079,0-.079.079v1.767a.073.073,0,0,0,.079.079h3.181c.091,0,.134.042.134.127v1.384c0,.085-.043.127-.134.127h-3.181a.073.073,0,0,0-.079.079v1.821c0,.055,0,.079.079.079h3.818c.091,0,.134.042.134.127v1.4a.115.115,0,0,1-.134.134h-5.682a.121.121,0,0,1-.134-.134Zm12.22,8.735a.231.231,0,0,1-.219-.134l-1.578-2.7h-.043l-1.59,2.7a.237.237,0,0,1-.219.134H258.41a.1.1,0,0,1-.091-.049.1.1,0,0,1,0-.109l2.647-4.419L258.5,304.3a.14.14,0,0,1,0-.109.085.085,0,0,1,.085-.049h1.821a.225.225,0,0,1,.206.134l1.408,2.4h.042l1.408-2.4a.225.225,0,0,1,.206-.134H265.5a.091.091,0,0,1,.085.049.145.145,0,0,1,0,.109l-2.465,4.134,2.659,4.419a.146.146,0,0,1,0,.109.091.091,0,0,1-.085.049Zm2.883-8.735c0-.091.043-.134.127-.134h1.694a.115.115,0,0,1,.134.134v3.321c0,.055,0,.079.079.079h2.9c.049,0,.073,0,.073-.079v-3.32a.121.121,0,0,1,.134-.134h1.657c.085,0,.127.043.127.134v8.6c0,.091-.043.134-.127.134H271.9a.121.121,0,0,1-.134-.134v-3.412c0-.055,0-.079-.073-.079h-2.9c-.055,0-.079,0-.079.079v3.412a.115.115,0,0,1-.134.134h-1.657c-.085,0-.127-.042-.127-.134Zm8.578,0a.121.121,0,0,1,.134-.134h1.657c.085,0,.127.043.127.134v8.6c0,.091-.043.134-.127.134h-1.657a.121.121,0,0,1-.134-.134Zm5.53,7.1c0,.055,0,.079.079.079h1.463a1.257,1.257,0,0,0,.892-.291,1.086,1.086,0,0,0,.3-.813,1.105,1.105,0,0,0-.3-.813,1.257,1.257,0,0,0-.892-.3H280.95c-.055,0-.079,0-.079.079Zm1.433-3.612a1.214,1.214,0,0,0,.856-.273.971.971,0,0,0,.31-.771.947.947,0,0,0-.31-.759,1.269,1.269,0,0,0-.856-.267H280.95c-.055,0-.079,0-.079.079v1.912c0,.055,0,.079.079.079Zm-3.351-3.49a.121.121,0,0,1,.134-.134h3.46a3.035,3.035,0,0,1,2.137.656,2.228,2.228,0,0,1,.692,1.706,2.167,2.167,0,0,1-.291,1.184,2,2,0,0,1-.741.7h0a1.245,1.245,0,0,1,.437.255,1.681,1.681,0,0,1,.382.437,2.62,2.62,0,0,1,.267.607,2.545,2.545,0,0,1,.1.728,2.331,2.331,0,0,1-.813,1.949,3.642,3.642,0,0,1-2.264.607h-3.363a.121.121,0,0,1-.134-.134Zm7.958,0c0-.091.043-.134.127-.134H288.7c.085,0,.127.043.127.134v8.6c0,.091-.043.134-.127.134h-1.657c-.085,0-.127-.042-.127-.134Zm5.567,8.735a.115.115,0,0,1-.134-.134v-6.951c0-.049,0-.073-.079-.073h-2.24a.121.121,0,0,1-.134-.134v-1.445a.121.121,0,0,1,.134-.134h6.556a.115.115,0,0,1,.134.134v1.445a.121.121,0,0,1-.134.134h-2.24c-.055,0-.079,0-.079.073v6.951a.115.115,0,0,1-.134.134Zm5.306-8.735c0-.091.043-.134.128-.134h1.657a.115.115,0,0,1,.134.134v8.6a.115.115,0,0,1-.134.134h-1.657c-.085,0-.128-.042-.128-.134Zm6.86,7.181a1.457,1.457,0,0,0,.9-.261,1.366,1.366,0,0,0,.5-.716,1.451,1.451,0,0,0,.061-.267,3.576,3.576,0,0,0,.049-.364q0-.219,0-.528V307.3a3.586,3.586,0,0,0-.049-.364,1.451,1.451,0,0,0-.061-.267,1.366,1.366,0,0,0-.5-.716,1.675,1.675,0,0,0-1.821,0,1.366,1.366,0,0,0-.5.716,2.132,2.132,0,0,0-.067.267,1.216,1.216,0,0,1-.042.364,2.181,2.181,0,0,0,0,.528v2.015a.939.939,0,0,0,.043.364,2.126,2.126,0,0,0,.067.267,1.366,1.366,0,0,0,.5.716,1.445,1.445,0,0,0,.947.261Zm0,1.694a3.758,3.758,0,0,1-2.028-.534A2.78,2.78,0,0,1,301.4,311c-.049-.158-.091-.31-.121-.455a4.869,4.869,0,0,1-.073-.5c-.018-.182-.03-.388-.043-.607s0-.516,0-.85v-.844a2.588,2.588,0,0,1,.043-.607,4.852,4.852,0,0,1,.073-.5,1.7,1.7,0,0,1,.121-.455,2.829,2.829,0,0,1,1.214-1.609,4.073,4.073,0,0,1,4.055,0,2.816,2.816,0,0,1,1.214,1.609,3.712,3.712,0,0,1,.127.455,4.86,4.86,0,0,1,.073.5c0,.182.03.388.036.607s0,.516,0,.844v.85a2.98,2.98,0,0,1-.036.607c-.036.164-.042.346-.073.5a3.713,3.713,0,0,1-.127.455,2.774,2.774,0,0,1-1.214,1.615,3.769,3.769,0,0,1-2,.534Zm4.941-8.875c0-.091.043-.134.127-.134h1.566a.249.249,0,0,1,.225.134l3.126,5.579h.091v-5.579c0-.091.042-.134.128-.134h1.475c.085,0,.128.043.128.134v8.6c0,.091-.043.134-.128.134h-1.554a.243.243,0,0,1-.219-.134l-3.144-5.567h-.061v5.567a.121.121,0,0,1-.134.134h-1.475c-.085,0-.127-.042-.127-.134Zm-308.895,0a.121.121,0,0,1,.134-.134H2.4a.2.2,0,0,1,.206.134l2.24,5.057H4.9l2.2-5.057a.2.2,0,0,1,.206-.134h1.53c.085,0,.127.043.127.134v8.6c0,.091-.042.134-.127.134H7.367a.121.121,0,0,1-.134-.134v-4.99H7.185L5.54,311.624a.255.255,0,0,1-.249.17h-.9a.255.255,0,0,1-.249-.17L2.5,307.885H2.45v4.99c0,.091-.042.134-.127.134H.878a.121.121,0,0,1-.134-.134Z" transform="translate(-0.259 -119.458)" fill="#31864b" fill-rule="evenodd"/>
    </g>
  </g>
</svg>
