<svg xmlns="http://www.w3.org/2000/svg" width="47.86" height="76.431" viewBox="0 0 47.86 76.431">
  <g id="Group_329" data-name="Group 329" transform="translate(-1278.859 -177.42)">
    <path id="Path_12429" data-name="Path 12429" d="M231.294,148.352a8.668,8.668,0,0,0,3.106-2.065,8.15,8.15,0,0,0,2.441-5.985l-.02-21.612h-8.173l.02,22H214.642L197.3,140.7l-.023-22H189.1l.02,21.632a8.572,8.572,0,0,0,8.515,8.5l24.093-.023,5.576,6.839h9.622Z" transform="translate(1089.793 98.194)" fill="#31864b" fill-rule="evenodd"/>
    <path id="Path_12430" data-name="Path 12430" d="M189,8.05h.023v-.4a4.014,4.014,0,0,1,.066-.6h.023V6.893c.02-.13.047-.263.073-.389h.017V6.42c.02-.093.043-.186.066-.279h.023v-.09l.053-.183h.037V5.752l.08-.233h0V5.48c.027-.08.057-.156.086-.233h0a6.04,6.04,0,0,1,.332-.715h.043v-.08l.053-.1h.037v-.07l.063-.113h.027V4.126l.083-.136h0c.113-.18.229-.356.356-.529h0l.06-.08h.06V3.305l.183-.229.073-.09h0v-.02l.06-.07h.03V2.859l.05-.057h.04V2.76c.11-.123.226-.246.332-.366.173-.173.352-.332.532-.5h.027v-.02l.083-.07h0a8.483,8.483,0,0,1,.918-.632h.04V1.154l.263-.16h0c.17-.093.332-.183.519-.266h.023l.153-.1h0c.146-.063.289-.123.439-.176h0c.176-.066.356-.126.539-.176h0L195.3.186h.023c.163-.04.332-.073.489-.1l.246-.04,1.33,1.33L212.8,16.764l8.781-8.711L229.6,0h.15c.146.023.293.047.436.076h.07c.1.02.2.043.293.07V.18h.086c.186.05.366.1.545.166V.362h.043l.226.083h.017l.163.066V.535h.06a7.431,7.431,0,0,1,.865.432V1h.047l.136.083h0l.256.17h.017a8.313,8.313,0,0,1,.8.622h0l.076.073v.05h.023l.066.063v.027h.03c.106.1.209.2.313.309s.136.143.2.216h0l.076.086h0l.266.332v.043h.033l.057.07v.02h0c.09.116.176.233.256.352h0l.176.263h0l.086.136V3.99h.076l.063.11v.07h.04c.05.086.1.173.143.263h0l.086.17h0c.07.146.136.289.2.439a1.616,1.616,0,0,1,.07.176v.02h0c.027.073.056.15.083.226v.047h0c.027.073.053.153.076.229v.13h.04l.05.186v.086h.023c.063.249.116.505.156.765v.229h.033c.027.186.047.372.06.562V8.03h0v.349l.023,27.823-8.126.04V12.595L212.876,28.3,207.1,22.54l-9.922-9.905.023,23.607H189.03L189,8.445Z" transform="translate(1089.859 177.42)" fill="#d8e989" fill-rule="evenodd"/>
  </g>
</svg>
